<svg width="1024" height="278" viewBox="0 0 1024 278" fill="none" xmlns="http://www.w3.org/2000/svg">
<g opacity="0.05" clip-path="url(#clip0_168_425)">
<path d="M57.2637 257.592H-22.0104V277.611H57.2637V257.592Z" fill="#2529E8"/>
<path d="M79.2217 225.506C84.7202 219.053 88.2556 211.16 89.4098 202.76C90.564 194.361 89.2884 185.807 85.7344 178.11C82.1804 170.412 76.4964 163.894 69.3547 159.325C62.2129 154.756 53.9121 152.328 45.4339 152.328H-22.1118V172.347H45.4339C48.6628 172.302 51.8685 172.898 54.8648 174.103C57.861 175.307 60.5883 177.095 62.8877 179.362C65.1872 181.629 67.0131 184.331 68.2594 187.31C69.5056 190.289 70.1473 193.486 70.1473 196.715C70.1473 199.944 69.5056 203.141 68.2594 206.12C67.0131 209.099 65.1872 211.801 62.8877 214.068C60.5883 216.335 57.861 218.123 54.8648 219.327C51.8685 220.531 48.6628 221.128 45.4339 221.083H-22.1118V241.107H45.4339C50.7662 241.115 56.0559 240.16 61.0489 238.288C64.0676 249.045 70.5191 258.521 79.4209 265.272C88.3227 272.024 99.187 275.681 110.36 275.687V255.668C102.271 255.66 94.5028 252.509 88.6931 246.882C82.8835 241.254 79.4875 233.59 79.2217 225.506Z" fill="#2529E8"/>
<path d="M242.71 257.592H163.436V277.611H242.71V257.592Z" fill="#2529E8"/>
<path d="M141.478 225.506C135.98 219.053 132.445 211.16 131.29 202.76C130.136 194.361 131.412 185.807 134.966 178.11C138.52 170.412 144.204 163.894 151.345 159.325C158.487 154.756 166.788 152.328 175.266 152.328H242.812V172.347H175.266C172.037 172.302 168.832 172.898 165.835 174.103C162.839 175.307 160.112 177.095 157.812 179.362C155.513 181.629 153.687 184.331 152.441 187.31C151.194 190.289 150.553 193.486 150.553 196.715C150.553 199.944 151.194 203.141 152.441 206.12C153.687 209.099 155.513 211.801 157.812 214.068C160.112 216.335 162.839 218.123 165.835 219.327C168.832 220.531 172.037 221.128 175.266 221.083H242.812V241.107H175.266C169.934 241.115 164.644 240.16 159.651 238.288C156.633 249.045 150.181 258.521 141.279 265.272C132.377 272.024 121.513 275.681 110.341 275.687V255.668C118.429 255.66 126.197 252.509 132.007 246.882C137.817 241.254 141.213 233.59 141.478 225.506Z" fill="#2529E8"/>
<path d="M322.188 257.592H242.913V277.611H322.188V257.592Z" fill="#2529E8"/>
<path d="M344.146 225.506C349.644 219.053 353.179 211.16 354.334 202.76C355.488 194.361 354.212 185.807 350.658 178.11C347.104 170.412 341.42 163.894 334.278 159.325C327.137 154.756 318.836 152.328 310.358 152.328H242.812V172.347H310.358C313.587 172.302 316.792 172.898 319.789 174.103C322.785 175.307 325.512 177.095 327.812 179.362C330.111 181.629 331.937 184.331 333.183 187.31C334.429 190.289 335.071 193.486 335.071 196.715C335.071 199.944 334.429 203.141 333.183 206.12C331.937 209.099 330.111 211.801 327.812 214.068C325.512 216.335 322.785 218.123 319.789 219.327C316.792 220.531 313.587 221.128 310.358 221.083H242.812V241.107H310.358C315.69 241.115 320.98 240.16 325.973 238.288C328.991 249.045 335.443 258.521 344.345 265.272C353.247 272.024 364.111 275.681 375.283 275.687V255.668C367.195 255.66 359.427 252.509 353.617 246.882C347.807 241.254 344.411 233.59 344.146 225.506Z" fill="#2529E8"/>
<path d="M507.634 257.592H428.36V277.611H507.634V257.592Z" fill="#2529E8"/>
<path d="M406.402 225.506C400.904 219.053 397.368 211.16 396.214 202.76C395.06 194.361 396.336 185.807 399.89 178.11C403.443 170.412 409.127 163.894 416.269 159.325C423.411 154.756 431.712 152.328 440.19 152.328H507.736V172.347H440.19C436.961 172.302 433.755 172.898 430.759 174.103C427.763 175.307 425.036 177.095 422.736 179.362C420.437 181.629 418.611 184.331 417.365 187.31C416.118 190.289 415.477 193.486 415.477 196.715C415.477 199.944 416.118 203.141 417.365 206.12C418.611 209.099 420.437 211.801 422.736 214.068C425.036 216.335 427.763 218.123 430.759 219.327C433.755 220.531 436.961 221.128 440.19 221.083H507.736V241.107H440.19C434.858 241.115 429.568 240.16 424.575 238.288C421.556 249.045 415.105 258.521 406.203 265.272C397.301 272.024 386.437 275.681 375.264 275.687V255.668C383.353 255.66 391.121 252.509 396.931 246.882C402.74 241.254 406.136 233.59 406.402 225.506Z" fill="#2529E8"/>
<path d="M507.634 0.045166H428.36V20.0643H507.634V0.045166Z" fill="#2529E8"/>
<path d="M406.402 52.1454C400.904 58.5987 397.368 66.4918 396.214 74.891C395.06 83.2903 396.335 91.8444 399.889 99.5417C403.443 107.239 409.127 113.758 416.269 118.326C423.411 122.895 431.712 125.323 440.19 125.323H507.736V105.304H440.19C436.961 105.35 433.755 104.753 430.759 103.549C427.763 102.345 425.036 100.557 422.736 98.2897C420.437 96.0225 418.611 93.3208 417.365 90.3418C416.118 87.3628 415.477 84.1657 415.477 80.9365C415.477 77.7073 416.118 74.5103 417.365 71.5313C418.611 68.5523 420.437 65.8506 422.736 63.5834C425.036 61.3161 427.763 59.5284 430.759 58.3242C433.755 57.12 436.961 56.5234 440.19 56.5689H507.736V36.5449H440.19C434.861 36.5366 429.575 37.4898 424.584 39.3585C421.566 28.6016 415.114 19.1259 406.212 12.3745C397.311 5.6231 386.446 1.96579 375.274 1.95972V21.9789C383.361 21.9897 391.128 25.1416 396.936 30.7698C402.744 36.398 406.138 44.0623 406.402 52.1454Z" fill="#2529E8"/>
<path d="M322.188 0.045166H242.913V20.0643H322.188V0.045166Z" fill="#2529E8"/>
<path d="M344.146 52.1454C349.644 58.5987 353.179 66.4918 354.334 74.891C355.488 83.2903 354.212 91.8444 350.658 99.5417C347.104 107.239 341.42 113.758 334.278 118.326C327.137 122.895 318.836 125.323 310.358 125.323H242.812V105.304H310.358C313.587 105.35 316.792 104.753 319.789 103.549C322.785 102.345 325.512 100.557 327.812 98.2897C330.111 96.0225 331.937 93.3208 333.183 90.3418C334.429 87.3628 335.071 84.1657 335.071 80.9365C335.071 77.7073 334.429 74.5103 333.183 71.5313C331.937 68.5523 330.111 65.8506 327.812 63.5834C325.512 61.3161 322.785 59.5284 319.789 58.3242C316.792 57.12 313.587 56.5234 310.358 56.5689H242.812V36.5449H310.358C315.686 36.5366 320.973 37.4898 325.963 39.3585C328.982 28.6016 335.433 19.1259 344.335 12.3745C353.237 5.6231 364.101 1.96579 375.274 1.95972V21.9789C367.186 21.9897 359.419 25.1416 353.612 30.7698C347.804 36.398 344.41 44.0623 344.146 52.1454Z" fill="#2529E8"/>
<path d="M242.71 0.045166H163.436V20.0643H242.71V0.045166Z" fill="#2529E8"/>
<path d="M141.478 52.1454C135.98 58.5987 132.445 66.4918 131.29 74.891C130.136 83.2903 131.412 91.8444 134.966 99.5417C138.52 107.239 144.204 113.758 151.346 118.326C158.487 122.895 166.788 125.323 175.266 125.323H242.812V105.304H175.266C172.037 105.35 168.832 104.753 165.835 103.549C162.839 102.345 160.112 100.557 157.812 98.2897C155.513 96.0225 153.687 93.3208 152.441 90.3418C151.195 87.3628 150.553 84.1657 150.553 80.9365C150.553 77.7073 151.195 74.5103 152.441 71.5313C153.687 68.5523 155.513 65.8506 157.812 63.5834C160.112 61.3161 162.839 59.5284 165.835 58.3242C168.832 57.12 172.037 56.5234 175.266 56.5689H242.812V36.5449H175.266C169.938 36.5366 164.651 37.4898 159.661 39.3585C156.642 28.6016 150.191 19.1259 141.289 12.3745C132.387 5.6231 121.523 1.96579 110.35 1.95972V21.9789C118.438 21.9897 126.205 25.1416 132.012 30.7698C137.82 36.398 141.214 44.0623 141.478 52.1454Z" fill="#2529E8"/>
<path d="M57.2637 0.045166H-22.0104V20.0643H57.2637V0.045166Z" fill="#2529E8"/>
<path d="M79.2217 52.1454C84.7202 58.5987 88.2556 66.4918 89.4098 74.891C90.564 83.2903 89.2884 91.8444 85.7344 99.5417C82.1804 107.239 76.4964 113.758 69.3547 118.326C62.2129 122.895 53.9121 125.323 45.4339 125.323H-22.1118V105.304H45.4339C48.6628 105.35 51.8685 104.753 54.8648 103.549C57.861 102.345 60.5883 100.557 62.8877 98.2897C65.1872 96.0225 67.0131 93.3208 68.2594 90.3418C69.5056 87.3628 70.1473 84.1657 70.1473 80.9365C70.1473 77.7073 69.5056 74.5103 68.2594 71.5313C67.0131 68.5523 65.1872 65.8506 62.8877 63.5834C60.5883 61.3161 57.861 59.5284 54.8648 58.3242C51.8685 57.12 48.6628 56.5234 45.4339 56.5689H-22.1118V36.5449H45.4339C50.7626 36.5366 56.0492 37.4898 61.0394 39.3585C64.0581 28.6016 70.5097 19.1259 79.4115 12.3745C88.3133 5.6231 99.1776 1.96579 110.35 1.95972V21.9789C102.263 21.9897 94.4956 25.1416 88.6879 30.7698C82.8802 36.398 79.4862 44.0623 79.2217 52.1454Z" fill="#2529E8"/>
<path d="M587.111 257.592H507.837V277.611H587.111V257.592Z" fill="#2529E8"/>
<path d="M609.069 225.506C614.568 219.053 618.103 211.16 619.257 202.76C620.412 194.361 619.136 185.807 615.582 178.11C612.028 170.412 606.344 163.894 599.202 159.325C592.061 154.756 583.76 152.328 575.282 152.328H507.736V172.347H575.282C578.51 172.302 581.716 172.898 584.712 174.103C587.709 175.307 590.436 177.095 592.735 179.362C595.035 181.629 596.861 184.331 598.107 187.31C599.353 190.289 599.995 193.486 599.995 196.715C599.995 199.944 599.353 203.141 598.107 206.12C596.861 209.099 595.035 211.801 592.735 214.068C590.436 216.335 587.709 218.123 584.712 219.327C581.716 220.531 578.51 221.128 575.282 221.083H507.736V241.107H575.282C580.614 241.115 585.904 240.16 590.897 238.288C593.915 249.045 600.367 258.521 609.269 265.272C618.17 272.024 629.035 275.681 640.207 275.687V255.668C632.119 255.66 624.35 252.509 618.541 246.882C612.731 241.254 609.335 233.59 609.069 225.506Z" fill="#2529E8"/>
<path d="M772.558 257.592H693.284V277.611H772.558V257.592Z" fill="#2529E8"/>
<path d="M671.326 225.506C665.827 219.053 662.292 211.16 661.138 202.76C659.984 194.361 661.259 185.807 664.813 178.11C668.367 170.412 674.051 163.894 681.193 159.325C688.335 154.756 696.635 152.328 705.114 152.328H772.659V172.347H705.114C701.885 172.302 698.679 172.898 695.683 174.103C692.686 175.307 689.959 177.095 687.66 179.362C685.36 181.629 683.534 184.331 682.288 187.31C681.042 190.289 680.4 193.486 680.4 196.715C680.4 199.944 681.042 203.141 682.288 206.12C683.534 209.099 685.36 211.801 687.66 214.068C689.959 216.335 692.686 218.123 695.683 219.327C698.679 220.531 701.885 221.128 705.114 221.083H772.659V241.107H705.114C699.781 241.115 694.492 240.16 689.499 238.288C686.48 249.045 680.028 258.521 671.127 265.272C662.225 272.024 651.36 275.681 640.188 275.687V255.668C648.276 255.66 656.045 252.509 661.854 246.882C667.664 241.254 671.06 233.59 671.326 225.506Z" fill="#2529E8"/>
<path d="M852.035 257.592H772.761V277.611H852.035V257.592Z" fill="#2529E8"/>
<path d="M873.993 225.506C879.491 219.053 883.027 211.16 884.181 202.76C885.335 194.361 884.06 185.807 880.506 178.11C876.952 170.412 871.268 163.894 864.126 159.325C856.984 154.756 848.683 152.328 840.205 152.328H772.659V172.347H840.205C843.434 172.302 846.64 172.898 849.636 174.103C852.632 175.307 855.36 177.095 857.659 179.362C859.958 181.629 861.784 184.331 863.031 187.31C864.277 190.289 864.919 193.486 864.919 196.715C864.919 199.944 864.277 203.141 863.031 206.12C861.784 209.099 859.958 211.801 857.659 214.068C855.36 216.335 852.632 218.123 849.636 219.327C846.64 220.531 843.434 221.128 840.205 221.083H772.659V241.107H840.205C845.537 241.115 850.827 240.16 855.82 238.288C858.839 249.045 865.29 258.521 874.192 265.272C883.094 272.024 893.958 275.681 905.131 275.687V255.668C897.042 255.66 889.274 252.509 883.464 246.882C877.655 241.254 874.259 233.59 873.993 225.506Z" fill="#2529E8"/>
<path d="M1037.48 257.592H958.208V277.611H1037.48V257.592Z" fill="#2529E8"/>
<path d="M936.25 225.506C930.751 219.053 927.216 211.16 926.062 202.76C924.907 194.361 926.183 185.807 929.737 178.11C933.291 170.412 938.975 163.894 946.117 159.325C953.258 154.756 961.559 152.328 970.037 152.328H1037.58V172.347H970.037C966.808 172.302 963.603 172.898 960.607 174.103C957.61 175.307 954.883 177.095 952.584 179.362C950.284 181.629 948.458 184.331 947.212 187.31C945.966 190.289 945.324 193.486 945.324 196.715C945.324 199.944 945.966 203.141 947.212 206.12C948.458 209.099 950.284 211.801 952.584 214.068C954.883 216.335 957.61 218.123 960.607 219.327C963.603 220.531 966.808 221.128 970.037 221.083H1037.58V241.107H970.037C964.705 241.115 959.415 240.16 954.422 238.288C951.404 249.045 944.952 258.521 936.05 265.272C927.149 272.024 916.284 275.681 905.112 275.687V255.668C913.2 255.66 920.969 252.509 926.778 246.882C932.588 241.254 935.984 233.59 936.25 225.506Z" fill="#2529E8"/>
<path d="M1037.48 0.045166H958.208V20.0643H1037.48V0.045166Z" fill="#2529E8"/>
<path d="M936.25 52.1452C930.751 58.5985 927.216 66.4916 926.062 74.8908C924.907 83.2901 926.183 91.8442 929.737 99.5416C933.291 107.239 938.975 113.757 946.117 118.326C953.258 122.895 961.559 125.323 970.037 125.323H1037.58V105.304H970.037C966.808 105.349 963.603 104.753 960.607 103.549C957.61 102.344 954.883 100.557 952.584 98.2895C950.284 96.0223 948.458 93.3206 947.212 90.3416C945.966 87.3626 945.324 84.1655 945.324 80.9363C945.324 77.7071 945.966 74.5101 947.212 71.5311C948.458 68.5521 950.284 65.8504 952.584 63.5832C954.883 61.3159 957.61 59.5282 960.607 58.324C963.603 57.1198 966.808 56.5232 970.037 56.5687H1037.58V36.5447H970.037C964.705 36.5368 959.415 37.4916 954.422 39.3631C951.404 28.6062 944.952 19.1306 936.05 12.3792C927.149 5.62773 916.284 1.97043 905.112 1.96436V21.9836C913.2 21.9918 920.969 25.1419 926.778 30.7694C932.588 36.3968 935.984 44.0613 936.25 52.1452Z" fill="#2529E8"/>
<path d="M852.035 0.045166H772.761V20.0643H852.035V0.045166Z" fill="#2529E8"/>
<path d="M873.993 52.1452C879.491 58.5985 883.027 66.4916 884.181 74.8908C885.335 83.2901 884.06 91.8442 880.506 99.5416C876.952 107.239 871.268 113.757 864.126 118.326C856.984 122.895 848.683 125.323 840.205 125.323H772.659V105.304H840.205C843.434 105.349 846.64 104.753 849.636 103.549C852.632 102.344 855.36 100.557 857.659 98.2895C859.958 96.0223 861.784 93.3206 863.031 90.3416C864.277 87.3626 864.919 84.1655 864.919 80.9363C864.919 77.7071 864.277 74.5101 863.031 71.5311C861.784 68.5521 859.958 65.8504 857.659 63.5832C855.36 61.3159 852.632 59.5282 849.636 58.324C846.64 57.1198 843.434 56.5232 840.205 56.5687H772.659V36.5447H840.205C845.537 36.5368 850.827 37.4916 855.82 39.3631C858.839 28.6062 865.29 19.1306 874.192 12.3792C883.094 5.62773 893.958 1.97043 905.131 1.96436V21.9836C897.042 21.9918 889.274 25.1419 883.464 30.7694C877.655 36.3968 874.259 44.0613 873.993 52.1452Z" fill="#2529E8"/>
<path d="M772.558 0.045166H693.284V20.0643H772.558V0.045166Z" fill="#2529E8"/>
<path d="M671.326 52.1454C665.827 58.5987 662.292 66.4918 661.138 74.891C659.984 83.2903 661.259 91.8444 664.813 99.5417C668.367 107.239 674.051 113.758 681.193 118.326C688.335 122.895 696.635 125.323 705.114 125.323H772.659V105.304H705.114C701.885 105.35 698.679 104.753 695.683 103.549C692.687 102.345 689.959 100.557 687.66 98.2897C685.36 96.0225 683.534 93.3208 682.288 90.3418C681.042 87.3628 680.4 84.1657 680.4 80.9365C680.4 77.7073 681.042 74.5103 682.288 71.5313C683.534 68.5523 685.36 65.8506 687.66 63.5834C689.959 61.3161 692.687 59.5284 695.683 58.3242C698.679 57.12 701.885 56.5234 705.114 56.5689H772.659V36.5449H705.114C699.785 36.5366 694.498 37.4898 689.508 39.3585C686.489 28.6016 680.038 19.1259 671.136 12.3745C662.234 5.6231 651.37 1.96579 640.198 1.95972V21.9789C648.285 21.9897 656.052 25.1416 661.86 30.7698C667.667 36.398 671.061 44.0623 671.326 52.1454Z" fill="#2529E8"/>
<path d="M587.111 0.045166H507.837V20.0643H587.111V0.045166Z" fill="#2529E8"/>
<path d="M609.069 52.1454C614.568 58.5987 618.103 66.4918 619.257 74.891C620.412 83.2903 619.136 91.8444 615.582 99.5417C612.028 107.239 606.344 113.758 599.202 118.326C592.061 122.895 583.76 125.323 575.282 125.323H507.736V105.304H575.282C578.51 105.35 581.716 104.753 584.712 103.549C587.709 102.345 590.436 100.557 592.735 98.2897C595.035 96.0225 596.861 93.3208 598.107 90.3418C599.353 87.3628 599.995 84.1657 599.995 80.9365C599.995 77.7073 599.353 74.5103 598.107 71.5313C596.861 68.5523 595.035 65.8506 592.735 63.5834C590.436 61.3161 587.709 59.5284 584.712 58.3242C581.716 57.12 578.51 56.5234 575.282 56.5689H507.736V36.5449H575.282C580.61 36.5366 585.897 37.4898 590.887 39.3585C593.906 28.6016 600.357 19.1259 609.259 12.3745C618.161 5.6231 629.025 1.96579 640.198 1.95972V21.9789C632.11 21.9897 624.343 25.1416 618.536 30.7698C612.728 36.398 609.334 44.0623 609.069 52.1454Z" fill="#2529E8"/>
</g>
<defs>
<clipPath id="clip0_168_425">
<rect width="1059.7" height="277.566" fill="white" transform="translate(-22.1118 0.045166)"/>
</clipPath>
</defs>
</svg>
