<svg width="767" height="206" viewBox="0 0 767 206" fill="none" xmlns="http://www.w3.org/2000/svg">
<g opacity="0.05" clip-path="url(#clip0_168_837)">
<path d="M41.2768 190.988H-17.3875V205.803H41.2768V190.988Z" fill="#2529E8"/>
<path d="M57.5259 167.244C61.595 162.469 64.2112 156.628 65.0653 150.412C65.9194 144.197 64.9755 137.866 62.3455 132.17C59.7155 126.474 55.5092 121.65 50.2242 118.269C44.9391 114.888 38.7964 113.091 32.5224 113.091H-17.4626V127.906H32.5224C34.9118 127.872 37.2841 128.314 39.5014 129.205C41.7187 130.096 43.7369 131.419 45.4385 133.097C47.1401 134.775 48.4914 136.774 49.4136 138.978C50.3359 141.183 50.8108 143.549 50.8108 145.938C50.8108 148.328 50.3359 150.694 49.4136 152.898C48.4914 155.103 47.1401 157.102 45.4385 158.78C43.7369 160.458 41.7187 161.781 39.5014 162.672C37.2841 163.563 34.9118 164.004 32.5224 163.971H-17.4626V178.789H32.5224C36.4683 178.795 40.3829 178.088 44.0777 176.703C46.3116 184.664 51.0859 191.676 57.6734 196.672C64.2609 201.668 72.3007 204.375 80.5685 204.379V189.564C74.583 189.558 68.8342 187.227 64.535 183.063C60.2357 178.898 57.7226 173.227 57.5259 167.244Z" fill="#2529E8"/>
<path d="M178.51 190.988H119.846V205.803H178.51V190.988Z" fill="#2529E8"/>
<path d="M103.597 167.244C99.5282 162.469 96.912 156.628 96.0579 150.412C95.2037 144.197 96.1477 137.866 98.7777 132.17C101.408 126.474 105.614 121.65 110.899 118.269C116.184 114.888 122.327 113.091 128.601 113.091H178.586V127.906H128.601C126.211 127.872 123.839 128.314 121.622 129.205C119.404 130.096 117.386 131.419 115.685 133.097C113.983 134.775 112.632 136.774 111.71 138.978C110.787 141.183 110.312 143.549 110.312 145.938C110.312 148.328 110.787 150.694 111.71 152.898C112.632 155.103 113.983 157.102 115.685 158.78C117.386 160.458 119.404 161.781 121.622 162.672C123.839 163.563 126.211 164.004 128.601 163.971H178.586V178.789H128.601C124.655 178.795 120.74 178.088 117.045 176.703C114.812 184.664 110.037 191.676 103.45 196.672C96.8623 201.668 88.8225 204.375 80.5547 204.379V189.564C86.5402 189.558 92.289 187.227 96.5882 183.063C100.887 178.898 103.401 173.227 103.597 167.244Z" fill="#2529E8"/>
<path d="M237.325 190.988H178.661V205.803H237.325V190.988Z" fill="#2529E8"/>
<path d="M253.575 167.244C257.644 162.469 260.26 156.628 261.114 150.412C261.968 144.197 261.024 137.866 258.394 132.17C255.764 126.474 251.558 121.65 246.273 118.269C240.988 114.888 234.845 113.091 228.571 113.091H178.586V127.906H228.571C230.96 127.872 233.333 128.314 235.55 129.205C237.767 130.096 239.786 131.419 241.487 133.097C243.189 134.775 244.54 136.774 245.462 138.978C246.384 141.183 246.859 143.549 246.859 145.938C246.859 148.328 246.384 150.694 245.462 152.898C244.54 155.103 243.189 157.102 241.487 158.78C239.786 160.458 237.767 161.781 235.55 162.672C233.333 163.563 230.96 164.004 228.571 163.971H178.586V178.789H228.571C232.517 178.795 236.431 178.088 240.126 176.703C242.36 184.664 247.134 191.676 253.722 196.672C260.309 201.668 268.349 204.375 276.617 204.379V189.564C270.632 189.558 264.883 187.227 260.584 183.063C256.284 178.898 253.771 173.227 253.575 167.244Z" fill="#2529E8"/>
<path d="M374.559 190.988H315.895V205.803H374.559V190.988Z" fill="#2529E8"/>
<path d="M299.646 167.244C295.577 162.469 292.96 156.628 292.106 150.412C291.252 144.197 292.196 137.866 294.826 132.17C297.456 126.474 301.662 121.65 306.947 118.269C312.232 114.888 318.375 113.091 324.649 113.091H374.634V127.906H324.649C322.26 127.872 319.887 128.314 317.67 129.205C315.453 130.096 313.435 131.419 311.733 133.097C310.031 134.775 308.68 136.774 307.758 138.978C306.836 141.183 306.361 143.549 306.361 145.938C306.361 148.328 306.836 150.694 307.758 152.898C308.68 155.103 310.031 157.102 311.733 158.78C313.435 160.458 315.453 161.781 317.67 162.672C319.887 163.563 322.26 164.004 324.649 163.971H374.634V178.789H324.649C320.703 178.795 316.789 178.088 313.094 176.703C310.86 184.664 306.086 191.676 299.498 196.672C292.911 201.668 284.871 204.375 276.603 204.379V189.564C282.588 189.558 288.337 187.227 292.637 183.063C296.936 178.898 299.449 173.227 299.646 167.244Z" fill="#2529E8"/>
<path d="M374.559 0.39917H315.895V15.2137H374.559V0.39917Z" fill="#2529E8"/>
<path d="M299.645 38.9542C295.576 43.7298 292.96 49.5708 292.106 55.7864C291.252 62.002 292.196 68.3322 294.826 74.0284C297.456 79.7245 301.662 84.5483 306.947 87.9293C312.232 91.3104 318.375 93.1072 324.649 93.1072H374.634V78.2926H324.649C322.26 78.3263 319.887 77.8848 317.67 76.9937C315.453 76.1026 313.434 74.7796 311.733 73.1018C310.031 71.424 308.68 69.4248 307.758 67.2202C306.835 65.0157 306.361 62.6498 306.361 60.2601C306.361 57.8705 306.835 55.5047 307.758 53.3001C308.68 51.0956 310.031 49.0963 311.733 47.4185C313.434 45.7407 315.453 44.4178 317.67 43.5266C319.887 42.6355 322.26 42.194 324.649 42.2277H374.634V27.4095H324.649C320.706 27.4034 316.793 28.1088 313.101 29.4917C310.867 21.5314 306.092 14.5192 299.505 9.52305C292.917 4.52688 284.878 1.82041 276.61 1.81592V16.6305C282.595 16.6384 288.342 18.9709 292.64 23.1359C296.938 27.3009 299.45 32.9726 299.645 38.9542Z" fill="#2529E8"/>
<path d="M237.325 0.39917H178.661V15.2137H237.325V0.39917Z" fill="#2529E8"/>
<path d="M253.575 38.9542C257.644 43.7298 260.26 49.5708 261.114 55.7864C261.968 62.002 261.024 68.3322 258.394 74.0284C255.764 79.7245 251.558 84.5483 246.273 87.9293C240.988 91.3104 234.845 93.1072 228.571 93.1072H178.586V78.2926H228.571C230.96 78.3263 233.333 77.8848 235.55 76.9937C237.767 76.1026 239.785 74.7796 241.487 73.1018C243.189 71.424 244.54 69.4248 245.462 67.2202C246.384 65.0157 246.859 62.6498 246.859 60.2601C246.859 57.8705 246.384 55.5047 245.462 53.3001C244.54 51.0956 243.189 49.0963 241.487 47.4185C239.785 45.7407 237.767 44.4178 235.55 43.5266C233.333 42.6355 230.96 42.194 228.571 42.2277H178.586V27.4095H228.571C232.514 27.4034 236.426 28.1088 240.119 29.4917C242.353 21.5314 247.127 14.5192 253.715 9.52305C260.302 4.52688 268.342 1.82041 276.61 1.81592V16.6305C270.625 16.6384 264.878 18.9709 260.58 23.1359C256.282 27.3009 253.77 32.9726 253.575 38.9542Z" fill="#2529E8"/>
<path d="M178.51 0.39917H119.846V15.2137H178.51V0.39917Z" fill="#2529E8"/>
<path d="M103.597 38.9542C99.5281 43.7298 96.9119 49.5708 96.0577 55.7864C95.2036 62.002 96.1475 68.3322 98.7775 74.0284C101.408 79.7245 105.614 84.5483 110.899 87.9293C116.184 91.3104 122.327 93.1072 128.601 93.1072H178.586V78.2926H128.601C126.211 78.3263 123.839 77.8848 121.622 76.9937C119.404 76.1026 117.386 74.7796 115.684 73.1018C113.983 71.424 112.632 69.4248 111.709 67.2202C110.787 65.0157 110.312 62.6498 110.312 60.2601C110.312 57.8705 110.787 55.5047 111.709 53.3001C112.632 51.0956 113.983 49.0963 115.684 47.4185C117.386 45.7407 119.404 44.4178 121.622 43.5266C123.839 42.6355 126.211 42.194 128.601 42.2277H178.586V27.4095H128.601C124.657 27.4034 120.745 28.1088 117.052 29.4917C114.818 21.5314 110.044 14.5192 103.457 9.52305C96.8691 4.52688 88.8293 1.82041 80.5615 1.81592V16.6305C86.5464 16.6384 92.2941 18.9709 96.5919 23.1359C100.89 27.3009 103.401 32.9726 103.597 38.9542Z" fill="#2529E8"/>
<path d="M41.2765 0.39917H-17.3877V15.2137H41.2765V0.39917Z" fill="#2529E8"/>
<path d="M57.5259 38.9542C61.595 43.7298 64.2112 49.5708 65.0653 55.7864C65.9194 62.002 64.9755 68.3322 62.3455 74.0284C59.7155 79.7245 55.5092 84.5483 50.2242 87.9293C44.9391 91.3104 38.7964 93.1072 32.5224 93.1072H-17.4626V78.2926H32.5224C34.9118 78.3263 37.2841 77.8848 39.5014 76.9937C41.7187 76.1026 43.7369 74.7796 45.4385 73.1018C47.1401 71.424 48.4914 69.4248 49.4136 67.2202C50.3359 65.0157 50.8108 62.6498 50.8108 60.2601C50.8108 57.8705 50.3359 55.5047 49.4136 53.3001C48.4914 51.0956 47.1401 49.0963 45.4385 47.4185C43.7369 45.7407 41.7187 44.4178 39.5014 43.5266C37.2841 42.6355 34.9118 42.194 32.5224 42.2277H-17.4626V27.4095H32.5224C36.4657 27.4034 40.3779 28.1088 44.0708 29.4917C46.3046 21.5314 51.0789 14.5192 57.6664 9.52305C64.2539 4.52688 72.2937 1.82041 80.5615 1.81592V16.6305C74.5767 16.6384 68.8289 18.9709 64.5311 23.1359C60.2333 27.3009 57.7217 32.9726 57.5259 38.9542Z" fill="#2529E8"/>
<path d="M433.373 190.988H374.709V205.803H433.373V190.988Z" fill="#2529E8"/>
<path d="M449.622 167.244C453.691 162.469 456.308 156.628 457.162 150.412C458.016 144.197 457.072 137.866 454.442 132.17C451.812 126.474 447.606 121.65 442.321 118.269C437.036 114.888 430.893 113.091 424.619 113.091H374.634V127.906H424.619C427.008 127.872 429.381 128.314 431.598 129.205C433.815 130.096 435.833 131.419 437.535 133.097C439.237 134.775 440.588 136.774 441.51 138.978C442.432 141.183 442.907 143.549 442.907 145.938C442.907 148.328 442.432 150.694 441.51 152.898C440.588 155.103 439.237 157.102 437.535 158.78C435.833 160.458 433.815 161.781 431.598 162.672C429.381 163.563 427.008 164.004 424.619 163.971H374.634V178.789H424.619C428.565 178.795 432.479 178.088 436.174 176.703C438.408 184.664 443.182 191.676 449.77 196.672C456.357 201.668 464.397 204.375 472.665 204.379V189.564C466.679 189.558 460.931 187.227 456.631 183.063C452.332 178.898 449.819 173.227 449.622 167.244Z" fill="#2529E8"/>
<path d="M570.607 190.988H511.943V205.803H570.607V190.988Z" fill="#2529E8"/>
<path d="M495.693 167.244C491.624 162.469 489.008 156.628 488.154 150.412C487.3 144.197 488.244 137.866 490.874 132.17C493.504 126.474 497.71 121.65 502.995 118.269C508.28 114.888 514.423 113.091 520.697 113.091H570.682V127.906H520.697C518.308 127.872 515.935 128.314 513.718 129.205C511.501 130.096 509.482 131.419 507.781 133.097C506.079 134.775 504.728 136.774 503.806 138.978C502.883 141.183 502.409 143.549 502.409 145.938C502.409 148.328 502.883 150.694 503.806 152.898C504.728 155.103 506.079 157.102 507.781 158.78C509.482 160.458 511.501 161.781 513.718 162.672C515.935 163.563 518.308 164.004 520.697 163.971H570.682V178.789H520.697C516.751 178.795 512.837 178.088 509.142 176.703C506.908 184.664 502.133 191.676 495.546 196.672C488.958 201.668 480.919 204.375 472.651 204.379V189.564C478.636 189.558 484.385 187.227 488.684 183.063C492.984 178.898 495.497 173.227 495.693 167.244Z" fill="#2529E8"/>
<path d="M629.422 190.988H570.757V205.803H629.422V190.988Z" fill="#2529E8"/>
<path d="M645.671 167.244C649.74 162.469 652.356 156.628 653.21 150.412C654.064 144.197 653.12 137.866 650.49 132.17C647.86 126.474 643.654 121.65 638.369 118.269C633.084 114.888 626.941 113.091 620.667 113.091H570.682V127.906H620.667C623.057 127.872 625.429 128.314 627.646 129.205C629.863 130.096 631.882 131.419 633.583 133.097C635.285 134.775 636.636 136.774 637.558 138.978C638.481 141.183 638.956 143.549 638.956 145.938C638.956 148.328 638.481 150.694 637.558 152.898C636.636 155.103 635.285 157.102 633.583 158.78C631.882 160.458 629.863 161.781 627.646 162.672C625.429 163.563 623.057 164.004 620.667 163.971H570.682V178.789H620.667C624.613 178.795 628.528 178.088 632.223 176.703C634.456 184.664 639.231 191.676 645.818 196.672C652.406 201.668 660.445 204.375 668.713 204.379V189.564C662.728 189.558 656.979 187.227 652.68 183.063C648.38 178.898 645.867 173.227 645.671 167.244Z" fill="#2529E8"/>
<path d="M766.655 190.988H707.991V205.803H766.655V190.988Z" fill="#2529E8"/>
<path d="M691.742 167.244C687.673 162.469 685.057 156.628 684.202 150.412C683.348 144.197 684.292 137.866 686.922 132.17C689.552 126.474 693.758 121.65 699.044 118.269C704.329 114.888 710.471 113.091 716.745 113.091H766.73V127.906H716.745C714.356 127.872 711.984 128.314 709.766 129.205C707.549 130.096 705.531 131.419 703.829 133.097C702.128 134.775 700.776 136.774 699.854 138.978C698.932 141.183 698.457 143.549 698.457 145.938C698.457 148.328 698.932 150.694 699.854 152.898C700.776 155.103 702.128 157.102 703.829 158.78C705.531 160.458 707.549 161.781 709.766 162.672C711.984 163.563 714.356 164.004 716.745 163.971H766.73V178.789H716.745C712.799 178.795 708.885 178.088 705.19 176.703C702.956 184.664 698.182 191.676 691.594 196.672C685.007 201.668 676.967 204.375 668.699 204.379V189.564C674.685 189.558 680.433 187.227 684.733 183.063C689.032 178.898 691.545 173.227 691.742 167.244Z" fill="#2529E8"/>
<path d="M766.655 0.39917H707.991V15.2137H766.655V0.39917Z" fill="#2529E8"/>
<path d="M691.742 38.9543C687.673 43.7299 685.057 49.5709 684.202 55.7865C683.348 62.0021 684.292 68.3323 686.922 74.0284C689.552 79.7246 693.758 84.5484 699.044 87.9294C704.329 91.3105 710.471 93.1073 716.745 93.1073H766.73V78.2927H716.745C714.356 78.3264 711.984 77.8849 709.766 76.9938C707.549 76.1027 705.531 74.7797 703.829 73.1019C702.128 71.4241 700.776 69.4249 699.854 67.2203C698.932 65.0158 698.457 62.6499 698.457 60.2602C698.457 57.8705 698.932 55.5047 699.854 53.3002C700.776 51.0957 702.128 49.0964 703.829 47.4186C705.531 45.7408 707.549 44.4178 709.766 43.5267C711.984 42.6356 714.356 42.1941 716.745 42.2278H766.73V27.4096H716.745C712.799 27.4038 708.885 28.1104 705.19 29.4953C702.956 21.535 698.182 14.5229 691.594 9.52672C685.007 4.53055 676.967 1.82407 668.699 1.81958V16.6342C674.685 16.6402 680.433 18.9714 684.733 23.1358C689.032 27.3002 691.545 32.9721 691.742 38.9543Z" fill="#2529E8"/>
<path d="M629.422 0.39917H570.757V15.2137H629.422V0.39917Z" fill="#2529E8"/>
<path d="M645.671 38.9543C649.74 43.7299 652.356 49.5709 653.21 55.7865C654.064 62.0021 653.12 68.3323 650.49 74.0284C647.86 79.7246 643.654 84.5484 638.369 87.9294C633.084 91.3105 626.941 93.1073 620.667 93.1073H570.682V78.2927H620.667C623.057 78.3264 625.429 77.8849 627.646 76.9938C629.863 76.1027 631.882 74.7797 633.583 73.1019C635.285 71.4241 636.636 69.4249 637.558 67.2203C638.481 65.0158 638.956 62.6499 638.956 60.2602C638.956 57.8705 638.481 55.5047 637.558 53.3002C636.636 51.0957 635.285 49.0964 633.583 47.4186C631.882 45.7408 629.863 44.4178 627.646 43.5267C625.429 42.6356 623.057 42.1941 620.667 42.2278H570.682V27.4096H620.667C624.613 27.4038 628.528 28.1104 632.223 29.4953C634.456 21.535 639.231 14.5229 645.818 9.52672C652.406 4.53055 660.445 1.82407 668.713 1.81958V16.6342C662.728 16.6402 656.979 18.9714 652.68 23.1358C648.38 27.3002 645.867 32.9721 645.671 38.9543Z" fill="#2529E8"/>
<path d="M570.607 0.39917H511.943V15.2137H570.607V0.39917Z" fill="#2529E8"/>
<path d="M495.694 38.9542C491.625 43.7298 489.009 49.5708 488.154 55.7864C487.3 62.002 488.244 68.3322 490.874 74.0284C493.504 79.7245 497.71 84.5483 502.996 87.9293C508.281 91.3104 514.423 93.1072 520.697 93.1072H570.682V78.2926H520.697C518.308 78.3263 515.936 77.8848 513.718 76.9937C511.501 76.1026 509.483 74.7796 507.781 73.1018C506.08 71.424 504.728 69.4248 503.806 67.2202C502.884 65.0157 502.409 62.6498 502.409 60.2601C502.409 57.8705 502.884 55.5047 503.806 53.3001C504.728 51.0956 506.08 49.0963 507.781 47.4185C509.483 45.7407 511.501 44.4178 513.718 43.5266C515.936 42.6355 518.308 42.194 520.697 42.2277H570.682V27.4095H520.697C516.754 27.4034 512.842 28.1088 509.149 29.4917C506.915 21.5314 502.141 14.5192 495.553 9.52305C488.966 4.52688 480.926 1.82041 472.658 1.81592V16.6305C478.643 16.6384 484.391 18.9709 488.689 23.1359C492.986 27.3009 495.498 32.9726 495.694 38.9542Z" fill="#2529E8"/>
<path d="M433.373 0.39917H374.709V15.2137H433.373V0.39917Z" fill="#2529E8"/>
<path d="M449.622 38.9542C453.691 43.7298 456.308 49.5708 457.162 55.7864C458.016 62.002 457.072 68.3322 454.442 74.0284C451.812 79.7245 447.606 84.5483 442.321 87.9293C437.036 91.3104 430.893 93.1072 424.619 93.1072H374.634V78.2926H424.619C427.008 78.3263 429.381 77.8848 431.598 76.9937C433.815 76.1026 435.833 74.7796 437.535 73.1018C439.237 71.424 440.588 69.4248 441.51 67.2202C442.432 65.0157 442.907 62.6498 442.907 60.2601C442.907 57.8705 442.432 55.5047 441.51 53.3001C440.588 51.0956 439.237 49.0963 437.535 47.4185C435.833 45.7407 433.815 44.4178 431.598 43.5266C429.381 42.6355 427.008 42.194 424.619 42.2277H374.634V27.4095H424.619C428.562 27.4034 432.474 28.1088 436.167 29.4917C438.401 21.5314 443.175 14.5192 449.763 9.52305C456.35 4.52688 464.39 1.82041 472.658 1.81592V16.6305C466.673 16.6384 460.925 18.9709 456.628 23.1359C452.33 27.3009 449.818 32.9726 449.622 38.9542Z" fill="#2529E8"/>
</g>
<defs>
<clipPath id="clip0_168_837">
<rect width="784.193" height="205.404" fill="white" transform="translate(-17.4626 0.39917)"/>
</clipPath>
</defs>
</svg>
