<svg width="1047" height="275" viewBox="0 0 1047 275" fill="none" xmlns="http://www.w3.org/2000/svg">
<g opacity="0.1" clip-path="url(#clip0_650_161)">
<path d="M78.3624 254.258H0.100586V274.021H78.3624V254.258Z" fill="#2529E8"/>
<path d="M100.04 222.582C105.468 216.211 108.958 208.419 110.097 200.127C111.237 191.835 109.978 183.39 106.469 175.791C102.96 168.192 97.3491 161.757 90.2985 157.246C83.2479 152.736 75.0531 150.339 66.6832 150.339H0V170.102H66.6832C69.8709 170.057 73.0356 170.646 75.9936 171.835C78.9516 173.024 81.6441 174.789 83.9141 177.027C86.1842 179.265 87.9868 181.933 89.2172 184.874C90.4475 187.815 91.081 190.971 91.081 194.159C91.081 197.347 90.4475 200.503 89.2172 203.444C87.9868 206.385 86.1842 209.052 83.9141 211.29C81.6441 213.529 78.9516 215.293 75.9936 216.482C73.0356 217.671 69.8709 218.26 66.6832 218.215H0V237.983H66.6832C71.9473 237.991 77.1695 237.049 82.0988 235.201C85.0789 245.821 91.4481 255.175 100.236 261.84C109.024 268.506 119.75 272.116 130.78 272.122V252.359C122.795 252.351 115.125 249.241 109.39 243.685C103.655 238.129 100.302 230.563 100.04 222.582Z" fill="#2529E8"/>
<path d="M261.44 254.258H183.179V274.021H261.44V254.258Z" fill="#2529E8"/>
<path d="M161.501 222.582C156.073 216.211 152.582 208.419 151.443 200.127C150.303 191.835 151.563 183.39 155.071 175.791C158.58 168.192 164.191 161.757 171.242 157.246C178.293 152.736 186.487 150.339 194.857 150.339H261.54V170.102H194.857C191.67 170.057 188.505 170.646 185.547 171.835C182.589 173.024 179.896 174.789 177.626 177.027C175.356 179.265 173.554 181.933 172.323 184.874C171.093 187.815 170.459 190.971 170.459 194.159C170.459 197.347 171.093 200.503 172.323 203.444C173.554 206.385 175.356 209.052 177.626 211.29C179.896 213.529 182.589 215.293 185.547 216.482C188.505 217.671 191.67 218.26 194.857 218.215H261.54V237.983H194.857C189.593 237.991 184.371 237.049 179.442 235.201C176.462 245.821 170.092 255.175 161.304 261.84C152.516 268.506 141.791 272.116 130.761 272.122V252.359C138.746 252.351 146.415 249.241 152.15 243.685C157.886 238.129 161.239 230.563 161.501 222.582Z" fill="#2529E8"/>
<path d="M339.902 254.258H261.641V274.021H339.902V254.258Z" fill="#2529E8"/>
<path d="M361.581 222.582C367.009 216.211 370.499 208.419 371.639 200.127C372.778 191.835 371.519 183.39 368.01 175.791C364.501 168.192 358.89 161.757 351.839 157.246C344.789 152.736 336.594 150.339 328.224 150.339H261.541V170.102H328.224C331.412 170.057 334.577 170.646 337.535 171.835C340.493 173.024 343.185 174.789 345.455 177.027C347.725 179.265 349.528 181.933 350.758 184.874C351.989 187.815 352.622 190.971 352.622 194.159C352.622 197.347 351.989 200.503 350.758 203.444C349.528 206.385 347.725 209.052 345.455 211.29C343.185 213.529 340.493 215.293 337.535 216.482C334.577 217.671 331.412 218.26 328.224 218.215H261.541V237.983H328.224C333.488 237.991 338.711 237.049 343.64 235.201C346.62 245.821 352.989 255.175 361.777 261.84C370.565 268.506 381.291 272.116 392.321 272.122V252.359C384.336 252.351 376.666 249.241 370.931 243.685C365.196 238.129 361.843 230.563 361.581 222.582Z" fill="#2529E8"/>
<path d="M522.982 254.258H444.72V274.021H522.982V254.258Z" fill="#2529E8"/>
<path d="M423.042 222.582C417.614 216.211 414.123 208.419 412.984 200.127C411.845 191.835 413.104 183.39 416.612 175.791C420.121 168.192 425.732 161.757 432.783 157.246C439.834 152.736 448.028 150.339 456.398 150.339H523.081V170.102H456.398C453.211 170.057 450.046 170.646 447.088 171.835C444.13 173.024 441.437 174.789 439.167 177.027C436.897 179.265 435.095 181.933 433.864 184.874C432.634 187.815 432 190.971 432 194.159C432 197.347 432.634 200.503 433.864 203.444C435.095 206.385 436.897 209.052 439.167 211.29C441.437 213.529 444.13 215.293 447.088 216.482C450.046 217.671 453.211 218.26 456.398 218.215H523.081V237.983H456.398C451.134 237.991 445.912 237.049 440.983 235.201C438.003 245.821 431.633 255.175 422.845 261.84C414.057 268.506 403.332 272.116 392.302 272.122V252.359C400.287 252.351 407.956 249.241 413.691 243.685C419.427 238.129 422.78 230.563 423.042 222.582Z" fill="#2529E8"/>
<path d="M522.982 -0.000244141H444.72V19.7633H522.982V-0.000244141Z" fill="#2529E8"/>
<path d="M423.042 51.4355C417.614 57.8064 414.124 65.5987 412.984 73.8906C411.845 82.1826 413.104 90.6275 416.613 98.2266C420.121 105.826 425.733 112.261 432.783 116.771C439.834 121.282 448.029 123.679 456.399 123.679H523.082V103.915H456.399C453.211 103.96 450.046 103.371 447.088 102.183C444.13 100.994 441.438 99.2288 439.168 96.9905C436.898 94.7522 435.095 92.0851 433.865 89.1441C432.634 86.2031 432.001 83.0469 432.001 79.8589C432.001 76.6709 432.634 73.5148 433.865 70.5738C435.095 67.6328 436.898 64.9657 439.168 62.7274C441.438 60.4891 444.13 58.7242 447.088 57.5354C450.046 56.3466 453.211 55.7576 456.399 55.8025H523.082V36.0341H456.399C451.138 36.026 445.919 36.967 440.992 38.8118C438.012 28.1923 431.643 18.8376 422.855 12.1724C414.067 5.50722 403.341 1.89662 392.312 1.89062V21.6542C400.296 21.6648 407.964 24.7765 413.697 30.3328C419.431 35.8892 422.781 43.4556 423.042 51.4355Z" fill="#2529E8"/>
<path d="M339.902 -0.000244141H261.641V19.7633H339.902V-0.000244141Z" fill="#2529E8"/>
<path d="M361.581 51.4355C367.009 57.8064 370.499 65.5987 371.639 73.8906C372.778 82.1826 371.519 90.6275 368.01 98.2266C364.501 105.826 358.89 112.261 351.84 116.771C344.789 121.282 336.594 123.679 328.224 123.679H261.541V103.915H328.224C331.412 103.96 334.577 103.371 337.535 102.183C340.493 100.994 343.185 99.2288 345.455 96.9905C347.725 94.7522 349.528 92.0851 350.758 89.1441C351.989 86.2031 352.622 83.0469 352.622 79.8589C352.622 76.6709 351.989 73.5148 350.758 70.5738C349.528 67.6328 347.725 64.9657 345.455 62.7274C343.185 60.4891 340.493 58.7242 337.535 57.5354C334.577 56.3466 331.412 55.7576 328.224 55.8025H261.541V36.0341H328.224C333.485 36.026 338.704 36.967 343.63 38.8118C346.611 28.1923 352.98 18.8376 361.768 12.1724C370.556 5.50722 381.282 1.89662 392.311 1.89062V21.6542C384.327 21.6648 376.659 24.7765 370.926 30.3328C365.192 35.8892 361.842 43.4556 361.581 51.4355Z" fill="#2529E8"/>
<path d="M261.44 -0.000244141H183.179V19.7633H261.44V-0.000244141Z" fill="#2529E8"/>
<path d="M161.501 51.4355C156.073 57.8064 152.583 65.5987 151.443 73.8906C150.304 82.1826 151.563 90.6275 155.072 98.2266C158.58 105.826 164.192 112.261 171.242 116.771C178.293 121.282 186.488 123.679 194.858 123.679H261.541V103.915H194.858C191.67 103.96 188.505 103.371 185.547 102.183C182.589 100.994 179.897 99.2288 177.627 96.9905C175.357 94.7522 173.554 92.0851 172.324 89.1441C171.093 86.2031 170.46 83.0469 170.46 79.8589C170.46 76.6709 171.093 73.5148 172.324 70.5738C173.554 67.6328 175.357 64.9657 177.627 62.7274C179.897 60.4891 182.589 58.7242 185.547 57.5354C188.505 56.3466 191.67 55.7576 194.858 55.8025H261.541V36.0341H194.858C189.597 36.026 184.378 36.967 179.451 38.8118C176.471 28.1923 170.102 18.8376 161.314 12.1724C152.526 5.50722 141.8 1.89662 130.771 1.89062V21.6542C138.755 21.6648 146.422 24.7765 152.156 30.3328C157.89 35.8892 161.24 43.4556 161.501 51.4355Z" fill="#2529E8"/>
<path d="M78.3624 -0.000244141H0.100586V19.7633H78.3624V-0.000244141Z" fill="#2529E8"/>
<path d="M100.04 51.4355C105.468 57.8064 108.958 65.5987 110.097 73.8906C111.237 82.1826 109.978 90.6275 106.469 98.2266C102.96 105.826 97.3491 112.261 90.2985 116.771C83.2479 121.282 75.0531 123.679 66.6832 123.679H0V103.915H66.6832C69.8709 103.96 73.0356 103.371 75.9936 102.183C78.9516 100.994 81.6441 99.2288 83.9141 96.9905C86.1842 94.7522 87.9868 92.0851 89.2172 89.1441C90.4475 86.2031 91.081 83.0469 91.081 79.8589C91.081 76.6709 90.4475 73.5148 89.2172 70.5738C87.9868 67.6328 86.1842 64.9657 83.9141 62.7274C81.6441 60.4891 78.9516 58.7242 75.9936 57.5354C73.0356 56.3466 69.8709 55.7576 66.6832 55.8025H0V36.0341H66.6832C71.9438 36.026 77.1629 36.967 82.0894 38.8118C85.0696 28.1923 91.4387 18.8376 100.227 12.1724C109.015 5.50722 119.741 1.89662 130.77 1.89062V21.6542C122.786 21.6648 115.118 24.7765 109.385 30.3328C103.651 35.8892 100.301 43.4556 100.04 51.4355Z" fill="#2529E8"/>
<path d="M601.443 254.258H523.182V274.021H601.443V254.258Z" fill="#2529E8"/>
<path d="M623.122 222.582C628.55 216.211 632.04 208.419 633.18 200.127C634.319 191.835 633.06 183.39 629.551 175.791C626.043 168.192 620.431 161.757 613.381 157.246C606.33 152.736 598.135 150.339 589.765 150.339H523.082V170.102H589.765C592.953 170.057 596.118 170.646 599.076 171.835C602.034 173.024 604.726 174.789 606.996 177.027C609.266 179.265 611.069 181.933 612.299 184.874C613.53 187.815 614.163 190.971 614.163 194.159C614.163 197.347 613.53 200.503 612.299 203.444C611.069 206.385 609.266 209.052 606.996 211.29C604.726 213.529 602.034 215.293 599.076 216.482C596.118 217.671 592.953 218.26 589.765 218.215H523.082V237.983H589.765C595.029 237.991 600.252 237.049 605.181 235.201C608.161 245.821 614.53 255.175 623.318 261.84C632.106 268.506 642.832 272.116 653.862 272.122V252.359C645.877 252.351 638.207 249.241 632.472 243.685C626.737 238.129 623.384 230.563 623.122 222.582Z" fill="#2529E8"/>
<path d="M784.522 254.258H706.26V274.021H784.522V254.258Z" fill="#2529E8"/>
<path d="M684.583 222.582C679.155 216.211 675.664 208.419 674.525 200.127C673.386 191.835 674.645 183.39 678.153 175.791C681.662 168.192 687.273 161.757 694.324 157.246C701.375 152.736 709.569 150.339 717.939 150.339H784.622V170.102H717.939C714.752 170.057 711.587 170.646 708.629 171.835C705.671 173.024 702.978 174.789 700.708 177.027C698.438 179.265 696.636 181.933 695.405 184.874C694.175 187.815 693.541 190.971 693.541 194.159C693.541 197.347 694.175 200.503 695.405 203.444C696.636 206.385 698.438 209.052 700.708 211.29C702.978 213.529 705.671 215.293 708.629 216.482C711.587 217.671 714.752 218.26 717.939 218.215H784.622V237.983H717.939C712.675 237.991 707.453 237.049 702.524 235.201C699.544 245.821 693.174 255.175 684.386 261.84C675.598 268.506 664.873 272.116 653.843 272.122V252.359C661.828 252.351 669.497 249.241 675.233 243.685C680.968 238.129 684.321 230.563 684.583 222.582Z" fill="#2529E8"/>
<path d="M862.984 254.258H784.723V274.021H862.984V254.258Z" fill="#2529E8"/>
<path d="M884.662 222.582C890.09 216.211 893.58 208.419 894.72 200.127C895.859 191.835 894.6 183.39 891.091 175.791C887.583 168.192 881.971 161.757 874.921 157.246C867.87 152.736 859.675 150.339 851.305 150.339H784.622V170.102H851.305C854.493 170.057 857.658 170.646 860.616 171.835C863.574 173.024 866.266 174.789 868.536 177.027C870.806 179.265 872.609 181.933 873.839 184.874C875.07 187.815 875.703 190.971 875.703 194.159C875.703 197.347 875.07 200.503 873.839 203.444C872.609 206.385 870.806 209.052 868.536 211.29C866.266 213.529 863.574 215.293 860.616 216.482C857.658 217.671 854.493 218.26 851.305 218.215H784.622V237.983H851.305C856.569 237.991 861.792 237.049 866.721 235.201C869.701 245.821 876.07 255.175 884.858 261.84C893.646 268.506 904.372 272.116 915.402 272.122V252.359C907.417 252.351 899.748 249.241 894.012 243.685C888.277 238.129 884.924 230.563 884.662 222.582Z" fill="#2529E8"/>
<path d="M1046.06 254.258H967.801V274.021H1046.06V254.258Z" fill="#2529E8"/>
<path d="M946.123 222.582C940.695 216.211 937.205 208.419 936.065 200.127C934.926 191.835 936.185 183.39 939.693 175.791C943.202 168.192 948.813 161.757 955.864 157.246C962.915 152.736 971.109 150.339 979.479 150.339H1046.16V170.102H979.479C976.292 170.057 973.127 170.646 970.169 171.835C967.211 173.024 964.518 174.789 962.248 177.027C959.978 179.265 958.176 181.933 956.945 184.874C955.715 187.815 955.081 190.971 955.081 194.159C955.081 197.347 955.715 200.503 956.945 203.444C958.176 206.385 959.978 209.052 962.248 211.29C964.518 213.529 967.211 215.293 970.169 216.482C973.127 217.671 976.292 218.26 979.479 218.215H1046.16V237.983H979.479C974.215 237.991 968.993 237.049 964.064 235.201C961.084 245.821 954.714 255.175 945.926 261.84C937.138 268.506 926.413 272.116 915.383 272.122V252.359C923.368 252.351 931.037 249.241 936.773 243.685C942.508 238.129 945.861 230.563 946.123 222.582Z" fill="#2529E8"/>
<path d="M1046.06 -0.000244141H967.801V19.7633H1046.06V-0.000244141Z" fill="#2529E8"/>
<path d="M946.123 51.4351C940.695 57.806 937.205 65.5983 936.065 73.8903C934.926 82.1822 936.185 90.6272 939.693 98.2262C943.202 105.825 948.813 112.26 955.864 116.771C962.915 121.281 971.109 123.679 979.479 123.679H1046.16V103.915H979.479C976.292 103.96 973.127 103.371 970.169 102.182C967.211 100.993 964.518 99.2285 962.248 96.9901C959.978 94.7518 958.176 92.0847 956.945 89.1437C955.715 86.2027 955.081 83.0465 955.081 79.8585C955.081 76.6705 955.715 73.5144 956.945 70.5734C958.176 67.6324 959.978 64.9653 962.248 62.727C964.518 60.4887 967.211 58.7238 970.169 57.535C973.127 56.3462 976.292 55.7572 979.479 55.8021H1046.16V36.0337H979.479C974.215 36.026 968.993 36.9686 964.064 38.8162C961.084 28.1967 954.714 18.842 945.926 12.1768C937.138 5.51162 926.413 1.90101 915.383 1.89502V21.6586C923.368 21.6667 931.037 24.7766 936.773 30.3322C942.508 35.8878 945.861 43.4544 946.123 51.4351Z" fill="#2529E8"/>
<path d="M862.984 -0.000244141H784.723V19.7633H862.984V-0.000244141Z" fill="#2529E8"/>
<path d="M884.662 51.4351C890.09 57.806 893.58 65.5983 894.72 73.8903C895.859 82.1822 894.6 90.6272 891.091 98.2262C887.583 105.825 881.971 112.26 874.921 116.771C867.87 121.281 859.675 123.679 851.305 123.679H784.622V103.915H851.305C854.493 103.96 857.658 103.371 860.616 102.182C863.574 100.993 866.266 99.2285 868.536 96.9901C870.806 94.7518 872.609 92.0847 873.839 89.1437C875.07 86.2027 875.703 83.0465 875.703 79.8585C875.703 76.6705 875.07 73.5144 873.839 70.5734C872.609 67.6324 870.806 64.9653 868.536 62.727C866.266 60.4887 863.574 58.7238 860.616 57.535C857.658 56.3462 854.493 55.7572 851.305 55.8021H784.622V36.0337H851.305C856.569 36.026 861.792 36.9686 866.721 38.8162C869.701 28.1967 876.07 18.842 884.858 12.1768C893.646 5.51162 904.372 1.90101 915.402 1.89502V21.6586C907.417 21.6667 899.748 24.7766 894.012 30.3322C888.277 35.8878 884.924 43.4544 884.662 51.4351Z" fill="#2529E8"/>
<path d="M784.522 -0.000244141H706.26V19.7633H784.522V-0.000244141Z" fill="#2529E8"/>
<path d="M684.582 51.4355C679.154 57.8064 675.664 65.5987 674.524 73.8906C673.385 82.1826 674.644 90.6275 678.153 98.2266C681.661 105.826 687.273 112.261 694.323 116.771C701.374 121.282 709.569 123.679 717.939 123.679H784.622V103.915H717.939C714.751 103.96 711.586 103.371 708.628 102.183C705.67 100.994 702.978 99.2288 700.708 96.9905C698.438 94.7522 696.635 92.0851 695.405 89.1441C694.174 86.2031 693.541 83.0469 693.541 79.8589C693.541 76.6709 694.174 73.5148 695.405 70.5738C696.635 67.6328 698.438 64.9657 700.708 62.7274C702.978 60.4891 705.67 58.7242 708.628 57.5354C711.586 56.3466 714.751 55.7576 717.939 55.8025H784.622V36.0341H717.939C712.678 36.026 707.459 36.967 702.533 38.8118C699.552 28.1923 693.183 18.8376 684.395 12.1724C675.607 5.50722 664.881 1.89662 653.852 1.89062V21.6542C661.836 21.6648 669.504 24.7765 675.237 30.3328C680.971 35.8892 684.321 43.4556 684.582 51.4355Z" fill="#2529E8"/>
<path d="M601.443 -0.000244141H523.182V19.7633H601.443V-0.000244141Z" fill="#2529E8"/>
<path d="M623.122 51.4355C628.55 57.8064 632.04 65.5987 633.18 73.8906C634.319 82.1826 633.06 90.6275 629.551 98.2266C626.043 105.826 620.431 112.261 613.381 116.771C606.33 121.282 598.135 123.679 589.765 123.679H523.082V103.915H589.765C592.953 103.96 596.118 103.371 599.076 102.183C602.034 100.994 604.726 99.2288 606.996 96.9905C609.266 94.7522 611.069 92.0851 612.299 89.1441C613.53 86.2031 614.163 83.0469 614.163 79.8589C614.163 76.6709 613.53 73.5148 612.299 70.5738C611.069 67.6328 609.266 64.9657 606.996 62.7274C604.726 60.4891 602.034 58.7242 599.076 57.5354C596.118 56.3466 592.953 55.7576 589.765 55.8025H523.082V36.0341H589.765C595.026 36.026 600.245 36.967 605.171 38.8118C608.152 28.1923 614.521 18.8376 623.309 12.1724C632.097 5.50722 642.823 1.89662 653.852 1.89062V21.6542C645.868 21.6648 638.2 24.7765 632.467 30.3328C626.733 35.8892 623.383 43.4556 623.122 51.4355Z" fill="#2529E8"/>
</g>
<defs>
<clipPath id="clip0_650_161">
<rect width="1046.16" height="274.021" fill="white"/>
</clipPath>
</defs>
</svg>
