<svg width="766" height="197" viewBox="0 0 766 197" fill="none" xmlns="http://www.w3.org/2000/svg">
<g opacity="0.1" clip-path="url(#clip0_147_3871)">
<path d="M57.3765 186.899H0.0732422V201.37H57.3765V186.899Z" fill="white"/>
<path d="M73.2489 163.706C77.2235 159.041 79.779 153.336 80.6133 147.265C81.4476 141.193 80.5256 135.01 77.9566 129.446C75.3876 123.882 71.2789 119.17 66.1165 115.867C60.954 112.565 54.9539 110.81 48.8254 110.81H0V125.28H48.8254C51.1594 125.248 53.4766 125.679 55.6425 126.549C57.8083 127.42 59.7797 128.712 61.4419 130.351C63.104 131.99 64.4239 133.943 65.3248 136.096C66.2256 138.249 66.6895 140.56 66.6895 142.895C66.6895 145.229 66.2256 147.54 65.3248 149.693C64.4239 151.847 63.104 153.799 61.4419 155.438C59.7797 157.077 57.8083 158.369 55.6425 159.24C53.4766 160.11 51.1594 160.542 48.8254 160.509H0V174.983H48.8254C52.6798 174.989 56.5035 174.299 60.1127 172.946C62.2947 180.721 66.9582 187.571 73.3929 192.451C79.8276 197.331 87.6808 199.975 95.7568 199.979V185.509C89.9102 185.503 84.2948 183.226 80.0953 179.158C75.8958 175.09 73.441 169.55 73.2489 163.706Z" fill="white"/>
<path d="M191.427 186.899H134.124V201.37H191.427V186.899Z" fill="white"/>
<path d="M118.251 163.706C114.277 159.041 111.721 153.336 110.887 147.265C110.052 141.193 110.974 135.01 113.543 129.446C116.112 123.882 120.221 119.17 125.383 115.867C130.546 112.565 136.546 110.81 142.675 110.81H191.5V125.28H142.675C140.341 125.248 138.023 125.679 135.858 126.549C133.692 127.42 131.72 128.712 130.058 130.351C128.396 131.99 127.076 133.943 126.175 136.096C125.274 138.249 124.811 140.56 124.811 142.895C124.811 145.229 125.274 147.54 126.175 149.693C127.076 151.847 128.396 153.799 130.058 155.438C131.72 157.077 133.692 158.369 135.858 159.24C138.023 160.11 140.341 160.542 142.675 160.509H191.5V174.983H142.675C138.82 174.989 134.996 174.299 131.387 172.946C129.205 180.721 124.542 187.571 118.107 192.451C111.672 197.331 103.819 199.975 95.7432 199.979V185.509C101.59 185.503 107.205 183.226 111.405 179.158C115.604 175.09 118.059 169.55 118.251 163.706Z" fill="white"/>
<path d="M248.876 186.899H191.573V201.37H248.876V186.899Z" fill="white"/>
<path d="M264.749 163.706C268.723 159.041 271.279 153.336 272.113 147.265C272.948 141.193 272.026 135.01 269.457 129.446C266.888 123.882 262.779 119.17 257.616 115.867C252.454 112.565 246.454 110.81 240.325 110.81H191.5V125.28H240.325C242.659 125.248 244.977 125.679 247.142 126.549C249.308 127.42 251.28 128.712 252.942 130.351C254.604 131.99 255.924 133.943 256.825 136.096C257.726 138.249 258.189 140.56 258.189 142.895C258.189 145.229 257.726 147.54 256.825 149.693C255.924 151.847 254.604 153.799 252.942 155.438C251.28 157.077 249.308 158.369 247.142 159.24C244.977 160.11 242.659 160.542 240.325 160.509H191.5V174.983H240.325C244.18 174.989 248.003 174.299 251.613 172.946C253.795 180.721 258.458 187.571 264.893 192.451C271.328 197.331 279.181 199.975 287.257 199.979V185.509C281.41 185.503 275.795 183.226 271.595 179.158C267.396 175.09 264.941 169.55 264.749 163.706Z" fill="white"/>
<path d="M382.927 186.899H325.624V201.37H382.927V186.899Z" fill="white"/>
<path d="M309.751 163.706C305.777 159.041 303.221 153.336 302.387 147.265C301.552 141.193 302.474 135.01 305.043 129.446C307.612 123.882 311.721 119.17 316.883 115.867C322.046 112.565 328.046 110.81 334.175 110.81H383V125.28H334.175C331.841 125.248 329.523 125.679 327.358 126.549C325.192 127.42 323.22 128.712 321.558 130.351C319.896 131.99 318.576 133.943 317.675 136.096C316.774 138.249 316.311 140.56 316.311 142.895C316.311 145.229 316.774 147.54 317.675 149.693C318.576 151.847 319.896 153.799 321.558 155.438C323.22 157.077 325.192 158.369 327.358 159.24C329.523 160.11 331.841 160.542 334.175 160.509H383V174.983H334.175C330.32 174.989 326.496 174.299 322.887 172.946C320.705 180.721 316.042 187.571 309.607 192.451C303.172 197.331 295.319 199.975 287.243 199.979V185.509C293.09 185.503 298.705 183.226 302.905 179.158C307.104 175.09 309.559 169.55 309.751 163.706Z" fill="white"/>
<path d="M382.927 0.731882H325.624V15.2027H382.927V0.731882Z" fill="white"/>
<path d="M309.751 38.3928C305.777 43.0576 303.221 48.7631 302.387 54.8344C301.552 60.9058 302.474 67.0892 305.043 72.6532C307.612 78.2172 311.721 82.9291 316.884 86.2317C322.046 89.5343 328.046 91.2894 334.175 91.2894H383V76.8186H334.175C331.841 76.8514 329.523 76.4202 327.358 75.5497C325.192 74.6793 323.22 73.3871 321.558 71.7482C319.896 70.1093 318.576 68.1564 317.675 66.003C316.774 63.8496 316.311 61.5386 316.311 59.2044C316.311 56.8702 316.774 54.5592 317.675 52.4058C318.576 50.2525 319.896 48.2996 321.558 46.6607C323.22 45.0218 325.192 43.7296 327.358 42.8591C329.523 41.9887 331.841 41.5574 334.175 41.5903H383V27.1159H334.175C330.323 27.1099 326.501 27.7989 322.894 29.1498C320.712 21.3741 316.049 14.5247 309.614 9.6444C303.179 4.76415 295.326 2.12046 287.25 2.11607V16.587C293.096 16.5947 298.71 18.8731 302.908 22.9414C307.107 27.0098 309.56 32.5499 309.751 38.3928Z" fill="white"/>
<path d="M248.876 0.731882H191.573V15.2027H248.876V0.731882Z" fill="white"/>
<path d="M264.749 38.3928C268.723 43.0576 271.279 48.7631 272.113 54.8344C272.948 60.9058 272.026 67.0892 269.457 72.6532C266.888 78.2172 262.779 82.9291 257.616 86.2317C252.454 89.5343 246.454 91.2894 240.325 91.2894H191.5V76.8186H240.325C242.659 76.8514 244.977 76.4202 247.142 75.5497C249.308 74.6793 251.28 73.3871 252.942 71.7482C254.604 70.1093 255.924 68.1564 256.825 66.003C257.726 63.8496 258.189 61.5386 258.189 59.2044C258.189 56.8702 257.726 54.5592 256.825 52.4058C255.924 50.2525 254.604 48.2996 252.942 46.6607C251.28 45.0218 249.308 43.7296 247.142 42.8591C244.977 41.9887 242.659 41.5574 240.325 41.5903H191.5V27.1159H240.325C244.177 27.1099 247.999 27.7989 251.606 29.1498C253.788 21.3741 258.451 14.5247 264.886 9.6444C271.321 4.76415 279.174 2.12046 287.25 2.11607V16.587C281.404 16.5947 275.79 18.8731 271.592 22.9414C267.393 27.0098 264.94 32.5499 264.749 38.3928Z" fill="white"/>
<path d="M191.427 0.731882H134.124V15.2027H191.427V0.731882Z" fill="white"/>
<path d="M118.251 38.3928C114.277 43.0576 111.721 48.7631 110.887 54.8344C110.052 60.9058 110.974 67.0892 113.543 72.6532C116.112 78.2172 120.221 82.9291 125.384 86.2317C130.546 89.5343 136.546 91.2894 142.675 91.2894H191.5V76.8186H142.675C140.341 76.8514 138.023 76.4202 135.858 75.5497C133.692 74.6793 131.72 73.3871 130.058 71.7482C128.396 70.1093 127.076 68.1564 126.175 66.003C125.274 63.8496 124.811 61.5386 124.811 59.2044C124.811 56.8702 125.274 54.5592 126.175 52.4058C127.076 50.2525 128.396 48.2996 130.058 46.6607C131.72 45.0218 133.692 43.7296 135.858 42.8591C138.023 41.9887 140.341 41.5574 142.675 41.5903H191.5V27.1159H142.675C138.823 27.1099 135.001 27.7989 131.394 29.1498C129.212 21.3741 124.549 14.5247 118.114 9.6444C111.679 4.76415 103.826 2.12046 95.75 2.11607V16.587C101.596 16.5947 107.21 18.8731 111.408 22.9414C115.607 27.0098 118.06 32.5499 118.251 38.3928Z" fill="white"/>
<path d="M57.377 0.731983H0.0737305V15.2028H57.377V0.731983Z" fill="white"/>
<path d="M73.2489 38.3928C77.2235 43.0576 79.779 48.7631 80.6133 54.8344C81.4476 60.9058 80.5256 67.0892 77.9566 72.6532C75.3876 78.2172 71.2789 82.9291 66.1165 86.2317C60.9541 89.5343 54.9539 91.2894 48.8254 91.2894H0V76.8186H48.8254C51.1594 76.8514 53.4766 76.4202 55.6425 75.5497C57.8083 74.6793 59.7797 73.3871 61.4419 71.7482C63.104 70.1093 64.4239 68.1564 65.3248 66.003C66.2256 63.8496 66.6895 61.5386 66.6895 59.2044C66.6895 56.8702 66.2256 54.5592 65.3248 52.4058C64.4239 50.2525 63.104 48.2996 61.4419 46.6607C59.7797 45.0218 57.8083 43.7296 55.6425 42.8591C53.4766 41.9887 51.1594 41.5574 48.8254 41.5903H0V27.1159H48.8254C52.6772 27.1099 56.4986 27.7989 60.1058 29.1498C62.2879 21.3741 66.9514 14.5247 73.3861 9.6444C79.8207 4.76415 87.674 2.12046 95.75 2.11607V16.587C89.904 16.5947 84.2896 18.8731 80.0915 22.9414C75.8934 27.0098 73.4401 32.5499 73.2489 38.3928Z" fill="white"/>
<path d="M440.376 186.899H383.073V201.37H440.376V186.899Z" fill="white"/>
<path d="M456.249 163.706C460.223 159.041 462.779 153.336 463.613 147.265C464.448 141.193 463.526 135.01 460.957 129.446C458.388 123.882 454.279 119.17 449.116 115.867C443.954 112.565 437.954 110.81 431.825 110.81H383V125.28H431.825C434.159 125.248 436.477 125.679 438.642 126.549C440.808 127.42 442.78 128.712 444.442 130.351C446.104 131.99 447.424 133.943 448.325 136.096C449.226 138.249 449.689 140.56 449.689 142.895C449.689 145.229 449.226 147.54 448.325 149.693C447.424 151.847 446.104 153.799 444.442 155.438C442.78 157.077 440.808 158.369 438.642 159.24C436.477 160.11 434.159 160.542 431.825 160.509H383V174.983H431.825C435.68 174.989 439.503 174.299 443.113 172.946C445.295 180.721 449.958 187.571 456.393 192.451C462.828 197.331 470.681 199.975 478.757 199.979V185.509C472.91 185.503 467.295 183.226 463.095 179.158C458.896 175.09 456.441 169.55 456.249 163.706Z" fill="white"/>
<path d="M574.426 186.899H517.123V201.37H574.426V186.899Z" fill="white"/>
<path d="M501.251 163.706C497.277 159.041 494.721 153.336 493.887 147.265C493.052 141.193 493.974 135.01 496.543 129.446C499.112 123.882 503.221 119.17 508.383 115.867C513.546 112.565 519.546 110.81 525.675 110.81H574.5V125.28H525.675C523.341 125.248 521.023 125.679 518.858 126.549C516.692 127.42 514.72 128.712 513.058 130.351C511.396 131.99 510.076 133.943 509.175 136.096C508.274 138.249 507.811 140.56 507.811 142.895C507.811 145.229 508.274 147.54 509.175 149.693C510.076 151.847 511.396 153.799 513.058 155.438C514.72 157.077 516.692 158.369 518.858 159.24C521.023 160.11 523.341 160.542 525.675 160.509H574.5V174.983H525.675C521.82 174.989 517.996 174.299 514.387 172.946C512.205 180.721 507.542 187.571 501.107 192.451C494.672 197.331 486.819 199.975 478.743 199.979V185.509C484.59 185.503 490.205 183.226 494.405 179.158C498.604 175.09 501.059 169.55 501.251 163.706Z" fill="white"/>
<path d="M631.876 186.899H574.573V201.37H631.876V186.899Z" fill="white"/>
<path d="M647.749 163.706C651.723 159.041 654.279 153.336 655.113 147.265C655.948 141.193 655.026 135.01 652.457 129.446C649.888 123.882 645.779 119.17 640.616 115.867C635.454 112.565 629.454 110.81 623.325 110.81H574.5V125.28H623.325C625.659 125.248 627.977 125.679 630.142 126.549C632.308 127.42 634.28 128.712 635.942 130.351C637.604 131.99 638.924 133.943 639.825 136.096C640.726 138.249 641.189 140.56 641.189 142.895C641.189 145.229 640.726 147.54 639.825 149.693C638.924 151.847 637.604 153.799 635.942 155.438C634.28 157.077 632.308 158.369 630.142 159.24C627.977 160.11 625.659 160.542 623.325 160.509H574.5V174.983H623.325C627.18 174.989 631.003 174.299 634.613 172.946C636.795 180.721 641.458 187.571 647.893 192.451C654.328 197.331 662.181 199.975 670.257 199.979V185.509C664.41 185.503 658.795 183.226 654.595 179.158C650.396 175.09 647.941 169.55 647.749 163.706Z" fill="white"/>
<path d="M765.926 186.899H708.623V201.37H765.926V186.899Z" fill="white"/>
<path d="M692.751 163.706C688.777 159.041 686.221 153.336 685.387 147.265C684.552 141.193 685.474 135.01 688.043 129.446C690.612 123.882 694.721 119.17 699.883 115.867C705.046 112.565 711.046 110.81 717.175 110.81H766V125.28H717.175C714.841 125.248 712.523 125.679 710.358 126.549C708.192 127.42 706.22 128.712 704.558 130.351C702.896 131.99 701.576 133.943 700.675 136.096C699.774 138.249 699.311 140.56 699.311 142.895C699.311 145.229 699.774 147.54 700.675 149.693C701.576 151.847 702.896 153.799 704.558 155.438C706.22 157.077 708.192 158.369 710.358 159.24C712.523 160.11 714.841 160.542 717.175 160.509H766V174.983H717.175C713.32 174.989 709.496 174.299 705.887 172.946C703.705 180.721 699.042 187.571 692.607 192.451C686.172 197.331 678.319 199.975 670.243 199.979V185.509C676.09 185.503 681.705 183.226 685.905 179.158C690.104 175.09 692.559 169.55 692.751 163.706Z" fill="white"/>
<path d="M765.926 0.731882H708.623V15.2027H765.926V0.731882Z" fill="white"/>
<path d="M692.751 38.3925C688.777 43.0572 686.221 48.7627 685.387 54.8341C684.552 60.9055 685.474 67.0889 688.043 72.6529C690.612 78.2169 694.721 82.9288 699.883 86.2314C705.046 89.5339 711.046 91.2891 717.175 91.2891H766V76.8182H717.175C714.841 76.8511 712.523 76.4199 710.358 75.5494C708.192 74.679 706.22 73.3867 704.558 71.7478C702.896 70.109 701.576 68.1561 700.675 66.0027C699.774 63.8493 699.311 61.5383 699.311 59.2041C699.311 56.8698 699.774 54.5589 700.675 52.4055C701.576 50.2521 702.896 48.2993 704.558 46.6604C706.22 45.0215 708.192 43.7292 710.358 42.8588C712.523 41.9884 714.841 41.5571 717.175 41.59H766V27.1156H717.175C713.32 27.1099 709.496 27.8001 705.887 29.153C703.705 21.3773 699.042 14.5279 692.607 9.6476C686.172 4.76734 678.319 2.12366 670.243 2.11927V16.5902C676.09 16.5961 681.705 18.8732 685.905 22.941C690.104 27.0088 692.559 32.549 692.751 38.3925Z" fill="white"/>
<path d="M631.876 0.731882H574.573V15.2027H631.876V0.731882Z" fill="white"/>
<path d="M647.749 38.3925C651.723 43.0572 654.279 48.7627 655.113 54.8341C655.948 60.9055 655.026 67.0889 652.457 72.6529C649.888 78.2169 645.779 82.9288 640.616 86.2314C635.454 89.5339 629.454 91.2891 623.325 91.2891H574.5V76.8182H623.325C625.659 76.8511 627.977 76.4199 630.142 75.5494C632.308 74.679 634.28 73.3867 635.942 71.7478C637.604 70.109 638.924 68.1561 639.825 66.0027C640.726 63.8493 641.189 61.5383 641.189 59.2041C641.189 56.8698 640.726 54.5589 639.825 52.4055C638.924 50.2521 637.604 48.2993 635.942 46.6604C634.28 45.0215 632.308 43.7292 630.142 42.8588C627.977 41.9884 625.659 41.5571 623.325 41.59H574.5V27.1156H623.325C627.18 27.1099 631.003 27.8001 634.613 29.153C636.795 21.3773 641.458 14.5279 647.893 9.6476C654.328 4.76734 662.181 2.12366 670.257 2.11927V16.5902C664.41 16.5961 658.795 18.8732 654.595 22.941C650.396 27.0088 647.941 32.549 647.749 38.3925Z" fill="white"/>
<path d="M574.426 0.731882H517.123V15.2027H574.426V0.731882Z" fill="white"/>
<path d="M501.251 38.3928C497.277 43.0576 494.721 48.7631 493.887 54.8344C493.052 60.9058 493.974 67.0892 496.543 72.6532C499.112 78.2172 503.221 82.9291 508.384 86.2317C513.546 89.5343 519.546 91.2894 525.675 91.2894H574.5V76.8186H525.675C523.341 76.8514 521.023 76.4202 518.858 75.5497C516.692 74.6793 514.72 73.3871 513.058 71.7482C511.396 70.1093 510.076 68.1564 509.175 66.003C508.274 63.8496 507.811 61.5386 507.811 59.2044C507.811 56.8702 508.274 54.5592 509.175 52.4058C510.076 50.2525 511.396 48.2996 513.058 46.6607C514.72 45.0218 516.692 43.7296 518.858 42.8591C521.023 41.9887 523.341 41.5574 525.675 41.5903H574.5V27.1159H525.675C521.823 27.1099 518.001 27.7989 514.394 29.1498C512.212 21.3741 507.549 14.5247 501.114 9.6444C494.679 4.76415 486.826 2.12046 478.75 2.11607V16.587C484.596 16.5947 490.21 18.8731 494.408 22.9414C498.607 27.0098 501.06 32.5499 501.251 38.3928Z" fill="white"/>
<path d="M440.376 0.731882H383.073V15.2027H440.376V0.731882Z" fill="white"/>
<path d="M456.249 38.3928C460.223 43.0576 462.779 48.7631 463.613 54.8344C464.448 60.9058 463.526 67.0892 460.957 72.6532C458.388 78.2172 454.279 82.9291 449.116 86.2317C443.954 89.5343 437.954 91.2894 431.825 91.2894H383V76.8186H431.825C434.159 76.8514 436.477 76.4202 438.642 75.5497C440.808 74.6793 442.78 73.3871 444.442 71.7482C446.104 70.1093 447.424 68.1564 448.325 66.003C449.226 63.8496 449.689 61.5386 449.689 59.2044C449.689 56.8702 449.226 54.5592 448.325 52.4058C447.424 50.2525 446.104 48.2996 444.442 46.6607C442.78 45.0218 440.808 43.7296 438.642 42.8591C436.477 41.9887 434.159 41.5574 431.825 41.5903H383V27.1159H431.825C435.677 27.1099 439.499 27.7989 443.106 29.1498C445.288 21.3741 449.951 14.5247 456.386 9.6444C462.821 4.76415 470.674 2.12046 478.75 2.11607V16.587C472.904 16.5947 467.29 18.8731 463.092 22.9414C458.893 27.0098 456.44 32.5499 456.249 38.3928Z" fill="white"/>
</g>
<defs>
<clipPath id="clip0_147_3871">
<rect width="766" height="200.638" fill="white" transform="translate(0 0.732178)"/>
</clipPath>
</defs>
</svg>
