<svg width="1024" height="268" viewBox="0 0 1024 268" fill="none" xmlns="http://www.w3.org/2000/svg">
<g opacity="0.1" clip-path="url(#clip0_147_3505)">
<path d="M76.7018 249.777H0.0980225V269.122H76.7018V249.777Z" fill="white"/>
<path d="M97.9202 218.772C103.233 212.536 106.65 204.909 107.765 196.793C108.88 188.677 107.648 180.411 104.214 172.973C100.779 165.534 95.2867 159.236 88.3855 154.821C81.4843 150.406 73.4631 148.059 65.2705 148.059H0V167.404H65.2705C68.3907 167.36 71.4883 167.937 74.3837 169.1C77.279 170.264 79.9144 171.992 82.1364 174.182C84.3584 176.373 86.1228 178.984 87.3271 181.863C88.5314 184.741 89.1515 187.831 89.1515 190.951C89.1515 194.072 88.5314 197.161 87.3271 200.039C86.1228 202.918 84.3584 205.529 82.1364 207.72C79.9144 209.911 77.279 211.638 74.3837 212.802C71.4883 213.965 68.3907 214.542 65.2705 214.498H0V233.847H65.2705C70.4231 233.855 75.5347 232.932 80.3595 231.124C83.2765 241.518 89.5107 250.675 98.1127 257.199C106.715 263.723 117.213 267.257 128.009 267.263V247.918C120.193 247.91 112.686 244.866 107.073 239.428C101.459 233.99 98.177 226.584 97.9202 218.772Z" fill="white"/>
<path d="M255.902 249.777H179.298V269.122H255.902V249.777Z" fill="white"/>
<path d="M158.08 218.772C152.766 212.536 149.35 204.909 148.235 196.793C147.12 188.677 148.352 180.411 151.786 172.973C155.221 165.534 160.713 159.236 167.614 154.821C174.516 150.406 182.537 148.059 190.729 148.059H256V167.404H190.729C187.609 167.36 184.512 167.937 181.616 169.1C178.721 170.264 176.086 171.992 173.864 174.182C171.642 176.373 169.877 178.984 168.673 181.863C167.469 184.741 166.849 187.831 166.849 190.951C166.849 194.072 167.469 197.161 168.673 200.039C169.877 202.918 171.642 205.529 173.864 207.72C176.086 209.911 178.721 211.638 181.616 212.802C184.512 213.965 187.609 214.542 190.729 214.498H256V233.847H190.729C185.577 233.855 180.465 232.932 175.64 231.124C172.723 241.518 166.489 250.675 157.887 257.199C149.285 263.723 138.787 267.257 127.991 267.263V247.918C135.807 247.91 143.313 244.866 148.927 239.428C154.541 233.99 157.823 226.584 158.08 218.772Z" fill="white"/>
<path d="M332.702 249.777H256.098V269.122H332.702V249.777Z" fill="white"/>
<path d="M353.92 218.772C359.233 212.536 362.65 204.909 363.765 196.793C364.88 188.677 363.648 180.411 360.214 172.973C356.779 165.534 351.287 159.236 344.385 154.821C337.484 150.406 329.463 148.059 321.271 148.059H256V167.404H321.271C324.391 167.36 327.488 167.937 330.384 169.1C333.279 170.264 335.914 171.992 338.136 174.182C340.358 176.373 342.123 178.984 343.327 181.863C344.531 184.741 345.151 187.831 345.151 190.951C345.151 194.072 344.531 197.161 343.327 200.039C342.123 202.918 340.358 205.529 338.136 207.72C335.914 209.911 333.279 211.638 330.384 212.802C327.488 213.965 324.391 214.542 321.271 214.498H256V233.847H321.271C326.423 233.855 331.535 232.932 336.359 231.124C339.276 241.518 345.511 250.675 354.113 257.199C362.715 263.723 373.213 267.257 384.009 267.263V247.918C376.193 247.91 368.686 244.866 363.073 239.428C357.459 233.99 354.177 226.584 353.92 218.772Z" fill="white"/>
<path d="M511.902 249.777H435.298V269.122H511.902V249.777Z" fill="white"/>
<path d="M414.08 218.772C408.766 212.536 405.35 204.909 404.235 196.793C403.12 188.677 404.352 180.411 407.786 172.973C411.221 165.534 416.713 159.236 423.614 154.821C430.516 150.406 438.537 148.059 446.729 148.059H512V167.404H446.729C443.609 167.36 440.512 167.937 437.616 169.1C434.721 170.264 432.086 171.992 429.864 174.182C427.642 176.373 425.877 178.984 424.673 181.863C423.469 184.741 422.849 187.831 422.849 190.951C422.849 194.072 423.469 197.161 424.673 200.039C425.877 202.918 427.642 205.529 429.864 207.72C432.086 209.911 434.721 211.638 437.616 212.802C440.512 213.965 443.609 214.542 446.729 214.498H512V233.847H446.729C441.577 233.855 436.465 232.932 431.64 231.124C428.723 241.518 422.489 250.675 413.887 257.199C405.285 263.723 394.787 267.257 383.991 267.263V247.918C391.807 247.91 399.313 244.866 404.927 239.428C410.541 233.99 413.823 226.584 414.08 218.772Z" fill="white"/>
<path d="M511.902 0.905884H435.298V20.2507H511.902V0.905884Z" fill="white"/>
<path d="M414.08 51.2514C408.767 57.4874 405.35 65.1146 404.235 73.2309C403.12 81.3472 404.352 89.6132 407.786 97.0513C411.221 104.489 416.713 110.788 423.615 115.203C430.516 119.618 438.537 121.964 446.729 121.965H512V102.62H446.729C443.609 102.664 440.512 102.087 437.616 100.923C434.721 99.7598 432.086 98.0323 429.864 95.8414C427.642 93.6505 425.877 91.0399 424.673 88.1612C423.469 85.2825 422.849 82.1932 422.849 79.0727C422.849 75.9523 423.469 72.863 424.673 69.9843C425.877 67.1057 427.642 64.495 429.864 62.3041C432.086 60.1132 434.721 58.3857 437.616 57.2221C440.512 56.0585 443.609 55.482 446.729 55.526H512V36.1764H446.729C441.58 36.1684 436.472 37.0895 431.65 38.8953C428.733 28.5007 422.498 19.3442 413.896 12.8202C405.294 6.29621 394.796 2.76209 384 2.75623V22.1011C391.815 22.1115 399.32 25.1572 404.932 30.5959C410.545 36.0345 413.824 43.4406 414.08 51.2514Z" fill="white"/>
<path d="M332.702 0.905884H256.098V20.2507H332.702V0.905884Z" fill="white"/>
<path d="M353.92 51.2514C359.233 57.4874 362.65 65.1146 363.765 73.2309C364.88 81.3472 363.648 89.6132 360.214 97.0513C356.779 104.489 351.287 110.788 344.385 115.203C337.484 119.618 329.463 121.964 321.271 121.965H256V102.62H321.271C324.391 102.664 327.488 102.087 330.384 100.923C333.279 99.7598 335.914 98.0323 338.136 95.8414C340.358 93.6505 342.123 91.0399 343.327 88.1612C344.531 85.2825 345.151 82.1932 345.151 79.0727C345.151 75.9523 344.531 72.863 343.327 69.9843C342.123 67.1057 340.358 64.495 338.136 62.3041C335.914 60.1132 333.279 58.3857 330.384 57.2221C327.488 56.0585 324.391 55.482 321.271 55.526H256V36.1764H321.271C326.42 36.1684 331.528 37.0895 336.35 38.8953C339.267 28.5007 345.502 19.3442 354.104 12.8202C362.706 6.29621 373.204 2.76209 384 2.75623V22.1011C376.185 22.1115 368.68 25.1572 363.068 30.5959C357.455 36.0345 354.176 43.4406 353.92 51.2514Z" fill="white"/>
<path d="M255.902 0.905884H179.298V20.2507H255.902V0.905884Z" fill="white"/>
<path d="M158.08 51.2514C152.767 57.4874 149.35 65.1146 148.235 73.2309C147.12 81.3472 148.352 89.6132 151.786 97.0513C155.221 104.489 160.713 110.788 167.615 115.203C174.516 119.618 182.537 121.964 190.729 121.965H256V102.62H190.729C187.609 102.664 184.512 102.087 181.616 100.923C178.721 99.7598 176.086 98.0323 173.864 95.8414C171.642 93.6505 169.877 91.0399 168.673 88.1612C167.469 85.2825 166.849 82.1932 166.849 79.0727C166.849 75.9523 167.469 72.863 168.673 69.9843C169.877 67.1057 171.642 64.495 173.864 62.3041C176.086 60.1132 178.721 58.3857 181.616 57.2221C184.512 56.0585 187.609 55.482 190.729 55.526H256V36.1764H190.729C185.58 36.1684 180.472 37.0895 175.65 38.8953C172.733 28.5007 166.498 19.3442 157.896 12.8202C149.294 6.29621 138.796 2.76209 128 2.75623V22.1011C135.815 22.1115 143.32 25.1572 148.932 30.5959C154.545 36.0345 157.824 43.4406 158.08 51.2514Z" fill="white"/>
<path d="M76.7018 0.905884H0.0980225V20.2507H76.7018V0.905884Z" fill="white"/>
<path d="M97.9202 51.2514C103.233 57.4874 106.65 65.1146 107.765 73.2309C108.88 81.3472 107.648 89.6132 104.214 97.0513C100.779 104.489 95.2867 110.788 88.3855 115.203C81.4843 119.618 73.4631 121.964 65.2705 121.965H0V102.62H65.2705C68.3907 102.664 71.4883 102.087 74.3837 100.923C77.279 99.7598 79.9144 98.0323 82.1364 95.8414C84.3584 93.6505 86.1228 91.0399 87.3271 88.1612C88.5314 85.2825 89.1515 82.1932 89.1515 79.0727C89.1515 75.9523 88.5314 72.863 87.3271 69.9843C86.1228 67.1057 84.3584 64.495 82.1364 62.3041C79.9144 60.1132 77.279 58.3857 74.3837 57.2221C71.4883 56.0585 68.3907 55.482 65.2705 55.526H0V36.1764H65.2705C70.4197 36.1684 75.5282 37.0895 80.3504 38.8953C83.2674 28.5007 89.5016 19.3442 98.1036 12.8202C106.706 6.29621 117.204 2.76209 128 2.75623V22.1011C120.185 22.1115 112.68 25.1572 107.068 30.5959C101.455 36.0345 98.1758 43.4406 97.9202 51.2514Z" fill="white"/>
<path d="M588.702 249.777H512.098V269.122H588.702V249.777Z" fill="white"/>
<path d="M609.92 218.772C615.233 212.536 618.65 204.909 619.765 196.793C620.88 188.677 619.648 180.411 616.214 172.973C612.779 165.534 607.287 159.236 600.385 154.821C593.484 150.406 585.463 148.059 577.271 148.059H512V167.404H577.271C580.391 167.36 583.488 167.937 586.384 169.1C589.279 170.264 591.914 171.992 594.136 174.182C596.358 176.373 598.123 178.984 599.327 181.863C600.531 184.741 601.151 187.831 601.151 190.951C601.151 194.072 600.531 197.161 599.327 200.039C598.123 202.918 596.358 205.529 594.136 207.72C591.914 209.911 589.279 211.638 586.384 212.802C583.488 213.965 580.391 214.542 577.271 214.498H512V233.847H577.271C582.423 233.855 587.535 232.932 592.359 231.124C595.276 241.518 601.511 250.675 610.113 257.199C618.715 263.723 629.213 267.257 640.009 267.263V247.918C632.193 247.91 624.686 244.866 619.073 239.428C613.459 233.99 610.177 226.584 609.92 218.772Z" fill="white"/>
<path d="M767.902 249.777H691.298V269.122H767.902V249.777Z" fill="white"/>
<path d="M670.08 218.772C664.766 212.536 661.35 204.909 660.235 196.793C659.119 188.677 660.352 180.411 663.786 172.973C667.221 165.534 672.713 159.236 679.614 154.821C686.516 150.406 694.537 148.059 702.729 148.059H768V167.404H702.729C699.609 167.36 696.512 167.937 693.616 169.1C690.721 170.264 688.085 171.992 685.863 174.182C683.641 176.373 681.877 178.984 680.673 181.863C679.468 184.741 678.848 187.831 678.848 190.951C678.848 194.072 679.468 197.161 680.673 200.039C681.877 202.918 683.641 205.529 685.863 207.72C688.085 209.911 690.721 211.638 693.616 212.802C696.512 213.965 699.609 214.542 702.729 214.498H768V233.847H702.729C697.577 233.855 692.465 232.932 687.64 231.124C684.723 241.518 678.489 250.675 669.887 257.199C661.285 263.723 650.787 267.257 639.991 267.263V247.918C647.807 247.91 655.313 244.866 660.927 239.428C666.541 233.99 669.823 226.584 670.08 218.772Z" fill="white"/>
<path d="M844.702 249.777H768.098V269.122H844.702V249.777Z" fill="white"/>
<path d="M865.92 218.772C871.233 212.536 874.65 204.909 875.765 196.793C876.88 188.677 875.648 180.411 872.214 172.973C868.779 165.534 863.287 159.236 856.385 154.821C849.484 150.406 841.463 148.059 833.271 148.059H768V167.404H833.271C836.391 167.36 839.488 167.937 842.384 169.1C845.279 170.264 847.914 171.992 850.136 174.182C852.358 176.373 854.123 178.984 855.327 181.863C856.531 184.741 857.151 187.831 857.151 190.951C857.151 194.072 856.531 197.161 855.327 200.039C854.123 202.918 852.358 205.529 850.136 207.72C847.914 209.911 845.279 211.638 842.384 212.802C839.488 213.965 836.391 214.542 833.271 214.498H768V233.847H833.271C838.423 233.855 843.535 232.932 848.359 231.124C851.276 241.518 857.511 250.675 866.113 257.199C874.715 263.723 885.213 267.257 896.009 267.263V247.918C888.193 247.91 880.686 244.866 875.073 239.428C869.459 233.99 866.177 226.584 865.92 218.772Z" fill="white"/>
<path d="M1023.9 249.777H947.298V269.122H1023.9V249.777Z" fill="white"/>
<path d="M926.08 218.772C920.766 212.536 917.35 204.909 916.235 196.793C915.119 188.677 916.352 180.411 919.786 172.973C923.221 165.534 928.713 159.236 935.614 154.821C942.516 150.406 950.537 148.059 958.729 148.059H1024V167.404H958.729C955.609 167.36 952.512 167.937 949.616 169.1C946.721 170.264 944.085 171.992 941.863 174.182C939.641 176.373 937.877 178.984 936.673 181.863C935.468 184.741 934.848 187.831 934.848 190.951C934.848 194.072 935.468 197.161 936.673 200.039C937.877 202.918 939.641 205.529 941.863 207.72C944.085 209.911 946.721 211.638 949.616 212.802C952.512 213.965 955.609 214.542 958.729 214.498H1024V233.847H958.729C953.577 233.855 948.465 232.932 943.64 231.124C940.723 241.518 934.489 250.675 925.887 257.199C917.285 263.723 906.787 267.257 895.991 267.263V247.918C903.807 247.91 911.313 244.866 916.927 239.428C922.541 233.99 925.823 226.584 926.08 218.772Z" fill="white"/>
<path d="M1023.9 0.905884H947.298V20.2507H1023.9V0.905884Z" fill="white"/>
<path d="M926.08 51.2512C920.766 57.4871 917.35 65.1143 916.235 73.2306C915.119 81.3469 916.352 89.613 919.786 97.051C923.221 104.489 928.713 110.788 935.614 115.203C942.516 119.618 950.537 121.964 958.729 121.964H1024V102.619H958.729C955.609 102.663 952.512 102.087 949.616 100.923C946.721 99.7595 944.085 98.032 941.863 95.8411C939.641 93.6503 937.877 91.0396 936.673 88.1609C935.468 85.2823 934.848 82.1929 934.848 79.0724C934.848 75.952 935.468 72.8627 936.673 69.984C937.877 67.1054 939.641 64.4947 941.863 62.3038C944.085 60.113 946.721 58.3855 949.616 57.2218C952.512 56.0582 955.609 55.4817 958.729 55.5257H1024V36.1761H958.729C953.577 36.1685 948.465 37.0912 943.64 38.8997C940.723 28.5051 934.489 19.3486 925.887 12.8246C917.285 6.3006 906.787 2.76649 895.991 2.76062V22.1055C903.807 22.1134 911.313 25.1575 916.927 30.5954C922.541 36.0333 925.823 43.4395 926.08 51.2512Z" fill="white"/>
<path d="M844.702 0.905884H768.098V20.2507H844.702V0.905884Z" fill="white"/>
<path d="M865.92 51.2512C871.233 57.4871 874.65 65.1143 875.765 73.2306C876.88 81.3469 875.648 89.613 872.214 97.051C868.779 104.489 863.287 110.788 856.385 115.203C849.484 119.618 841.463 121.964 833.271 121.964H768V102.619H833.271C836.391 102.663 839.488 102.087 842.384 100.923C845.279 99.7595 847.914 98.032 850.136 95.8411C852.358 93.6503 854.123 91.0396 855.327 88.1609C856.531 85.2823 857.151 82.1929 857.151 79.0724C857.151 75.952 856.531 72.8627 855.327 69.984C854.123 67.1054 852.358 64.4947 850.136 62.3038C847.914 60.113 845.279 58.3855 842.384 57.2218C839.488 56.0582 836.391 55.4817 833.271 55.5257H768V36.1761H833.271C838.423 36.1685 843.535 37.0912 848.359 38.8997C851.276 28.5051 857.511 19.3486 866.113 12.8246C874.715 6.3006 885.213 2.76649 896.009 2.76062V22.1055C888.193 22.1134 880.686 25.1575 875.073 30.5954C869.459 36.0333 866.177 43.4395 865.92 51.2512Z" fill="white"/>
<path d="M767.902 0.905884H691.298V20.2507H767.902V0.905884Z" fill="white"/>
<path d="M670.08 51.2514C664.767 57.4874 661.35 65.1146 660.235 73.2309C659.12 81.3472 660.352 89.6132 663.786 97.0513C667.221 104.489 672.713 110.788 679.615 115.203C686.516 119.618 694.537 121.964 702.729 121.965H768V102.62H702.729C699.609 102.664 696.512 102.087 693.616 100.923C690.721 99.7598 688.086 98.0323 685.864 95.8414C683.642 93.6505 681.877 91.0399 680.673 88.1612C679.469 85.2825 678.849 82.1932 678.849 79.0727C678.849 75.9523 679.469 72.863 680.673 69.9843C681.877 67.1057 683.642 64.495 685.864 62.3041C688.086 60.1132 690.721 58.3857 693.616 57.2221C696.512 56.0585 699.609 55.482 702.729 55.526H768V36.1764H702.729C697.58 36.1684 692.472 37.0895 687.65 38.8953C684.733 28.5007 678.498 19.3442 669.896 12.8202C661.294 6.29621 650.796 2.76209 640 2.75623V22.1011C647.815 22.1115 655.32 25.1572 660.932 30.5959C666.545 36.0345 669.824 43.4406 670.08 51.2514Z" fill="white"/>
<path d="M588.702 0.905884H512.098V20.2507H588.702V0.905884Z" fill="white"/>
<path d="M609.92 51.2514C615.233 57.4874 618.65 65.1146 619.765 73.2309C620.88 81.3472 619.648 89.6132 616.214 97.0513C612.779 104.489 607.287 110.788 600.385 115.203C593.484 119.618 585.463 121.964 577.271 121.965H512V102.62H577.271C580.391 102.664 583.488 102.087 586.384 100.923C589.279 99.7598 591.914 98.0323 594.136 95.8414C596.358 93.6505 598.123 91.0399 599.327 88.1612C600.531 85.2825 601.151 82.1932 601.151 79.0727C601.151 75.9523 600.531 72.863 599.327 69.9843C598.123 67.1057 596.358 64.495 594.136 62.3041C591.914 60.1132 589.279 58.3857 586.384 57.2221C583.488 56.0585 580.391 55.482 577.271 55.526H512V36.1764H577.271C582.42 36.1684 587.528 37.0895 592.35 38.8953C595.267 28.5007 601.502 19.3442 610.104 12.8202C618.706 6.29621 629.204 2.76209 640 2.75623V22.1011C632.185 22.1115 624.68 25.1572 619.068 30.5959C613.455 36.0345 610.176 43.4406 609.92 51.2514Z" fill="white"/>
</g>
<defs>
<clipPath id="clip0_147_3505">
<rect width="1024" height="268.216" fill="white" transform="translate(0 0.90625)"/>
</clipPath>
</defs>
</svg>
