<svg width="1480" height="388" viewBox="0 0 1480 388" fill="none" xmlns="http://www.w3.org/2000/svg">
<g opacity="0.05" clip-path="url(#clip0_146_22)">
<path d="M110.858 359.697H0.141724V387.656H110.858V359.697Z" fill="#2529E8"/>
<path d="M141.525 314.885C149.205 305.872 154.142 294.848 155.754 283.118C157.366 271.387 155.585 259.44 150.621 248.69C145.658 237.94 137.719 228.836 127.745 222.455C117.77 216.074 106.177 212.683 94.3363 212.683H0V240.642H94.3363C98.8459 240.579 103.323 241.412 107.508 243.094C111.692 244.775 115.501 247.272 118.713 250.439C121.924 253.605 124.474 257.378 126.215 261.539C127.956 265.699 128.852 270.165 128.852 274.675C128.852 279.185 127.956 283.65 126.215 287.81C124.474 291.971 121.924 295.744 118.713 298.91C115.501 302.077 111.692 304.574 107.508 306.256C103.323 307.937 98.8459 308.771 94.3363 308.707H0V336.673H94.3363C101.783 336.684 109.171 335.351 116.145 332.737C120.361 347.76 129.371 360.994 141.803 370.423C154.236 379.853 169.409 384.961 185.013 384.969V357.01C173.717 356.998 162.867 352.599 154.753 344.739C146.639 336.88 141.896 326.175 141.525 314.885Z" fill="#2529E8"/>
<path d="M369.858 359.697H259.142V387.656H369.858V359.697Z" fill="#2529E8"/>
<path d="M228.475 314.885C220.795 305.872 215.858 294.848 214.246 283.118C212.634 271.387 214.415 259.44 219.379 248.69C224.343 237.94 232.281 228.836 242.255 222.455C252.23 216.074 263.823 212.683 275.664 212.683H370V240.642H275.664C271.154 240.579 266.677 241.412 262.492 243.094C258.308 244.775 254.499 247.272 251.287 250.439C248.076 253.605 245.526 257.378 243.785 261.539C242.044 265.699 241.148 270.165 241.148 274.675C241.148 279.185 242.044 283.65 243.785 287.81C245.526 291.971 248.076 295.744 251.287 298.91C254.499 302.077 258.308 304.574 262.492 306.256C266.677 307.937 271.154 308.771 275.664 308.707H370V336.673H275.664C268.217 336.684 260.829 335.351 253.855 332.737C249.639 347.76 240.629 360.994 228.197 370.423C215.764 379.853 200.591 384.961 184.987 384.969V357.01C196.283 356.998 207.133 352.599 215.247 344.739C223.361 336.88 228.104 326.175 228.475 314.885Z" fill="#2529E8"/>
<path d="M480.858 359.697H370.142V387.656H480.858V359.697Z" fill="#2529E8"/>
<path d="M511.525 314.885C519.205 305.872 524.142 294.848 525.754 283.118C527.366 271.387 525.585 259.44 520.621 248.69C515.658 237.94 507.719 228.836 497.745 222.455C487.77 216.074 476.177 212.683 464.336 212.683H370V240.642H464.336C468.846 240.579 473.323 241.412 477.508 243.094C481.692 244.775 485.501 247.272 488.713 250.439C491.924 253.605 494.474 257.378 496.215 261.539C497.956 265.699 498.852 270.165 498.852 274.675C498.852 279.185 497.956 283.65 496.215 287.81C494.474 291.971 491.924 295.744 488.713 298.91C485.501 302.077 481.692 304.574 477.508 306.256C473.323 307.937 468.846 308.771 464.336 308.707H370V336.673H464.336C471.783 336.684 479.171 335.351 486.145 332.737C490.361 347.76 499.371 360.994 511.803 370.423C524.236 379.853 539.409 384.961 555.013 384.969V357.01C543.717 356.998 532.867 352.599 524.753 344.739C516.639 336.88 511.896 326.175 511.525 314.885Z" fill="#2529E8"/>
<path d="M739.858 359.697H629.142V387.656H739.858V359.697Z" fill="#2529E8"/>
<path d="M598.475 314.885C590.795 305.872 585.858 294.848 584.246 283.118C582.634 271.387 584.415 259.44 589.379 248.69C594.343 237.94 602.281 228.836 612.255 222.455C622.23 216.074 633.823 212.683 645.664 212.683H740V240.642H645.664C641.154 240.579 636.677 241.412 632.492 243.094C628.308 244.775 624.499 247.272 621.287 250.439C618.076 253.605 615.526 257.378 613.785 261.539C612.044 265.699 611.148 270.165 611.148 274.675C611.148 279.185 612.044 283.65 613.785 287.81C615.526 291.971 618.076 295.744 621.287 298.91C624.499 302.077 628.308 304.574 632.492 306.256C636.677 307.937 641.154 308.771 645.664 308.707H740V336.673H645.664C638.217 336.684 630.829 335.351 623.855 332.737C619.639 347.76 610.629 360.994 598.197 370.423C585.764 379.853 570.591 384.961 554.987 384.969V357.01C566.283 356.998 577.133 352.599 585.247 344.739C593.361 336.88 598.104 326.175 598.475 314.885Z" fill="#2529E8"/>
<path d="M739.858 0H629.142V27.9593H739.858V0Z" fill="#2529E8"/>
<path d="M598.475 72.7648C590.795 81.7777 585.858 92.8014 584.246 104.532C582.634 116.263 584.415 128.21 589.379 138.96C594.343 149.71 602.281 158.814 612.255 165.195C622.23 171.576 633.823 174.967 645.664 174.967H740V147.008H645.664C641.154 147.071 636.677 146.238 632.492 144.556C628.308 142.875 624.499 140.378 621.287 137.211C618.076 134.045 615.526 130.272 613.785 126.111C612.044 121.95 611.148 117.485 611.148 112.975C611.148 108.465 612.044 104 613.785 99.8397C615.526 95.6791 618.076 91.9059 621.287 88.7394C624.499 85.5729 628.308 83.0761 632.492 81.3943C636.677 79.7125 641.154 78.8793 645.664 78.9428H740V50.9767H645.664C638.222 50.9651 630.838 52.2963 623.869 54.9063C619.653 39.8828 610.642 26.6489 598.21 17.2197C585.777 7.79045 570.604 2.68255 555 2.67407V30.6335C566.295 30.6485 577.143 35.0505 585.254 42.9111C593.365 50.7716 598.105 61.4757 598.475 72.7648Z" fill="#2529E8"/>
<path d="M480.858 0H370.142V27.9593H480.858V0Z" fill="#2529E8"/>
<path d="M511.525 72.7648C519.205 81.7777 524.142 92.8014 525.754 104.532C527.366 116.263 525.585 128.21 520.621 138.96C515.657 149.71 507.719 158.814 497.745 165.195C487.77 171.576 476.177 174.967 464.336 174.967H370V147.008H464.336C468.846 147.071 473.323 146.238 477.508 144.556C481.692 142.875 485.501 140.378 488.713 137.211C491.924 134.045 494.474 130.272 496.215 126.111C497.956 121.95 498.852 117.485 498.852 112.975C498.852 108.465 497.956 104 496.215 99.8397C494.474 95.6791 491.924 91.9059 488.713 88.7394C485.501 85.5729 481.692 83.0761 477.508 81.3943C473.323 79.7125 468.846 78.8793 464.336 78.9428H370V50.9767H464.336C471.778 50.9651 479.162 52.2963 486.131 54.9063C490.347 39.8828 499.358 26.6489 511.79 17.2197C524.223 7.79045 539.396 2.68255 555 2.67407V30.6335C543.705 30.6485 532.857 35.0505 524.746 42.9111C516.635 50.7716 511.895 61.4757 511.525 72.7648Z" fill="#2529E8"/>
<path d="M369.858 0H259.142V27.9593H369.858V0Z" fill="#2529E8"/>
<path d="M228.475 72.7648C220.795 81.7777 215.858 92.8014 214.246 104.532C212.634 116.263 214.415 128.21 219.379 138.96C224.343 149.71 232.281 158.814 242.255 165.195C252.23 171.576 263.823 174.967 275.664 174.967H370V147.008H275.664C271.154 147.071 266.677 146.238 262.492 144.556C258.308 142.875 254.499 140.378 251.287 137.211C248.076 134.045 245.526 130.272 243.785 126.111C242.044 121.95 241.148 117.485 241.148 112.975C241.148 108.465 242.044 104 243.785 99.8397C245.526 95.6791 248.076 91.9059 251.287 88.7394C254.499 85.5729 258.308 83.0761 262.492 81.3943C266.677 79.7125 271.154 78.8793 275.664 78.9428H370V50.9767H275.664C268.222 50.9651 260.838 52.2963 253.869 54.9063C249.653 39.8828 240.642 26.6489 228.21 17.2197C215.777 7.79045 200.604 2.68255 185 2.67407V30.6335C196.295 30.6485 207.143 35.0505 215.254 42.9111C223.365 50.7716 228.105 61.4757 228.475 72.7648Z" fill="#2529E8"/>
<path d="M110.858 0H0.141724V27.9593H110.858V0Z" fill="#2529E8"/>
<path d="M141.525 72.7648C149.205 81.7777 154.142 92.8014 155.754 104.532C157.366 116.263 155.585 128.21 150.621 138.96C145.657 149.71 137.719 158.814 127.745 165.195C117.77 171.576 106.177 174.967 94.3363 174.967H0V147.008H94.3363C98.8459 147.071 103.323 146.238 107.508 144.556C111.692 142.875 115.501 140.378 118.713 137.211C121.924 134.045 124.474 130.272 126.215 126.111C127.956 121.95 128.852 117.485 128.852 112.975C128.852 108.465 127.956 104 126.215 99.8397C124.474 95.6791 121.924 91.9059 118.713 88.7394C115.501 85.5729 111.692 83.0761 107.508 81.3943C103.323 79.7125 98.8459 78.8793 94.3363 78.9428H0V50.9767H94.3363C101.778 50.9651 109.162 52.2963 116.131 54.9063C120.347 39.8828 129.358 26.6489 141.79 17.2197C154.223 7.79045 169.396 2.68255 185 2.67407V30.6335C173.705 30.6485 162.857 35.0505 154.746 42.9111C146.635 50.7716 141.895 61.4757 141.525 72.7648Z" fill="#2529E8"/>
<path d="M850.858 359.697H740.142V387.656H850.858V359.697Z" fill="#2529E8"/>
<path d="M881.525 314.885C889.205 305.872 894.142 294.848 895.754 283.118C897.366 271.387 895.585 259.44 890.621 248.69C885.658 237.94 877.719 228.836 867.745 222.455C857.77 216.074 846.177 212.683 834.336 212.683H740V240.642H834.336C838.846 240.579 843.323 241.412 847.508 243.094C851.692 244.775 855.501 247.272 858.713 250.439C861.924 253.605 864.474 257.378 866.215 261.539C867.956 265.699 868.852 270.165 868.852 274.675C868.852 279.185 867.956 283.65 866.215 287.81C864.474 291.971 861.924 295.744 858.713 298.91C855.501 302.077 851.692 304.574 847.508 306.256C843.323 307.937 838.846 308.771 834.336 308.707H740V336.673H834.336C841.783 336.684 849.171 335.351 856.145 332.737C860.361 347.76 869.371 360.994 881.803 370.423C894.236 379.853 909.409 384.961 925.013 384.969V357.01C913.717 356.998 902.867 352.599 894.753 344.739C886.639 336.88 881.896 326.175 881.525 314.885Z" fill="#2529E8"/>
<path d="M1109.86 359.697H999.142V387.656H1109.86V359.697Z" fill="#2529E8"/>
<path d="M968.475 314.885C960.795 305.872 955.858 294.848 954.246 283.118C952.634 271.387 954.415 259.44 959.379 248.69C964.342 237.94 972.281 228.836 982.255 222.455C992.23 216.074 1003.82 212.683 1015.66 212.683H1110V240.642H1015.66C1011.15 240.579 1006.68 241.412 1002.49 243.094C998.308 244.775 994.499 247.272 991.287 250.439C988.076 253.605 985.526 257.378 983.785 261.539C982.044 265.699 981.148 270.165 981.148 274.675C981.148 279.185 982.044 283.65 983.785 287.81C985.526 291.971 988.076 295.744 991.287 298.91C994.499 302.077 998.308 304.574 1002.49 306.256C1006.68 307.937 1011.15 308.771 1015.66 308.707H1110V336.673H1015.66C1008.22 336.684 1000.83 335.351 993.855 332.737C989.639 347.76 980.629 360.994 968.196 370.423C955.764 379.853 940.591 384.961 924.987 384.969V357.01C936.283 356.998 947.133 352.599 955.247 344.739C963.361 336.88 968.103 326.175 968.475 314.885Z" fill="#2529E8"/>
<path d="M1220.86 359.697H1110.14V387.656H1220.86V359.697Z" fill="#2529E8"/>
<path d="M1251.53 314.885C1259.2 305.872 1264.14 294.848 1265.75 283.118C1267.37 271.387 1265.58 259.44 1260.62 248.69C1255.66 237.94 1247.72 228.836 1237.74 222.455C1227.77 216.074 1216.18 212.683 1204.34 212.683H1110V240.642H1204.34C1208.85 240.579 1213.32 241.412 1217.51 243.094C1221.69 244.775 1225.5 247.272 1228.71 250.439C1231.92 253.605 1234.47 257.378 1236.21 261.539C1237.96 265.699 1238.85 270.165 1238.85 274.675C1238.85 279.185 1237.96 283.65 1236.21 287.81C1234.47 291.971 1231.92 295.744 1228.71 298.91C1225.5 302.077 1221.69 304.574 1217.51 306.256C1213.32 307.937 1208.85 308.771 1204.34 308.707H1110V336.673H1204.34C1211.78 336.684 1219.17 335.351 1226.14 332.737C1230.36 347.76 1239.37 360.994 1251.8 370.423C1264.24 379.853 1279.41 384.961 1295.01 384.969V357.01C1283.72 356.998 1272.87 352.599 1264.75 344.739C1256.64 336.88 1251.9 326.175 1251.53 314.885Z" fill="#2529E8"/>
<path d="M1479.86 359.697H1369.14V387.656H1479.86V359.697Z" fill="#2529E8"/>
<path d="M1338.47 314.885C1330.8 305.872 1325.86 294.848 1324.25 283.118C1322.63 271.387 1324.42 259.44 1329.38 248.69C1334.34 237.94 1342.28 228.836 1352.26 222.455C1362.23 216.074 1373.82 212.683 1385.66 212.683H1480V240.642H1385.66C1381.15 240.579 1376.68 241.412 1372.49 243.094C1368.31 244.775 1364.5 247.272 1361.29 250.439C1358.08 253.605 1355.53 257.378 1353.78 261.539C1352.04 265.699 1351.15 270.165 1351.15 274.675C1351.15 279.185 1352.04 283.65 1353.78 287.81C1355.53 291.971 1358.08 295.744 1361.29 298.91C1364.5 302.077 1368.31 304.574 1372.49 306.256C1376.68 307.937 1381.15 308.771 1385.66 308.707H1480V336.673H1385.66C1378.22 336.684 1370.83 335.351 1363.86 332.737C1359.64 347.76 1350.63 360.994 1338.2 370.423C1325.76 379.853 1310.59 384.961 1294.99 384.969V357.01C1306.28 356.998 1317.13 352.599 1325.25 344.739C1333.36 336.88 1338.1 326.175 1338.47 314.885Z" fill="#2529E8"/>
<path d="M1479.86 0H1369.14V27.9593H1479.86V0Z" fill="#2529E8"/>
<path d="M1338.47 72.7646C1330.8 81.7776 1325.86 92.8012 1324.25 104.532C1322.63 116.262 1324.42 128.209 1329.38 138.96C1334.34 149.71 1342.28 158.814 1352.26 165.195C1362.23 171.576 1373.82 174.967 1385.66 174.967H1480V147.008H1385.66C1381.15 147.071 1376.68 146.238 1372.49 144.556C1368.31 142.874 1364.5 140.378 1361.29 137.211C1358.08 134.045 1355.53 130.271 1353.78 126.111C1352.04 121.95 1351.15 117.485 1351.15 112.975C1351.15 108.465 1352.04 104 1353.78 99.8395C1355.53 95.6789 1358.08 91.9058 1361.29 88.7392C1364.5 85.5727 1368.31 83.076 1372.49 81.3942C1376.68 79.7124 1381.15 78.8791 1385.66 78.9427H1480V50.9765H1385.66C1378.22 50.9655 1370.83 52.299 1363.86 54.9129C1359.64 39.8894 1350.63 26.6555 1338.2 17.2263C1325.76 7.79704 1310.59 2.68914 1294.99 2.68066V30.6401C1306.28 30.6515 1317.13 35.0511 1325.25 42.9106C1333.36 50.77 1338.1 61.4744 1338.47 72.7646Z" fill="#2529E8"/>
<path d="M1220.86 0H1110.14V27.9593H1220.86V0Z" fill="#2529E8"/>
<path d="M1251.53 72.7646C1259.2 81.7776 1264.14 92.8012 1265.75 104.532C1267.37 116.262 1265.58 128.209 1260.62 138.96C1255.66 149.71 1247.72 158.814 1237.74 165.195C1227.77 171.576 1216.18 174.967 1204.34 174.967H1110V147.008H1204.34C1208.85 147.071 1213.32 146.238 1217.51 144.556C1221.69 142.874 1225.5 140.378 1228.71 137.211C1231.92 134.045 1234.47 130.271 1236.21 126.111C1237.96 121.95 1238.85 117.485 1238.85 112.975C1238.85 108.465 1237.96 104 1236.21 99.8395C1234.47 95.6789 1231.92 91.9058 1228.71 88.7392C1225.5 85.5727 1221.69 83.076 1217.51 81.3942C1213.32 79.7124 1208.85 78.8791 1204.34 78.9427H1110V50.9765H1204.34C1211.78 50.9655 1219.17 52.299 1226.14 54.9129C1230.36 39.8894 1239.37 26.6555 1251.8 17.2263C1264.24 7.79704 1279.41 2.68914 1295.01 2.68066V30.6401C1283.72 30.6515 1272.87 35.0511 1264.75 42.9106C1256.64 50.77 1251.9 61.4744 1251.53 72.7646Z" fill="#2529E8"/>
<path d="M1109.86 0H999.142V27.9593H1109.86V0Z" fill="#2529E8"/>
<path d="M968.475 72.7648C960.795 81.7777 955.858 92.8014 954.246 104.532C952.634 116.263 954.415 128.21 959.379 138.96C964.343 149.71 972.281 158.814 982.255 165.195C992.23 171.576 1003.82 174.967 1015.66 174.967H1110V147.008H1015.66C1011.15 147.071 1006.68 146.238 1002.49 144.556C998.308 142.875 994.499 140.378 991.287 137.211C988.076 134.045 985.526 130.272 983.785 126.111C982.044 121.95 981.148 117.485 981.148 112.975C981.148 108.465 982.044 104 983.785 99.8397C985.526 95.6791 988.076 91.9059 991.287 88.7394C994.499 85.5729 998.308 83.0761 1002.49 81.3943C1006.68 79.7125 1011.15 78.8793 1015.66 78.9428H1110V50.9767H1015.66C1008.22 50.9651 1000.84 52.2963 993.869 54.9063C989.653 39.8828 980.642 26.6489 968.21 17.2197C955.777 7.79045 940.604 2.68255 925 2.67407V30.6335C936.295 30.6485 947.143 35.0505 955.254 42.9111C963.365 50.7716 968.105 61.4757 968.475 72.7648Z" fill="#2529E8"/>
<path d="M850.858 0H740.142V27.9593H850.858V0Z" fill="#2529E8"/>
<path d="M881.525 72.7648C889.205 81.7777 894.142 92.8014 895.754 104.532C897.366 116.263 895.585 128.21 890.621 138.96C885.657 149.71 877.719 158.814 867.745 165.195C857.77 171.576 846.177 174.967 834.336 174.967H740V147.008H834.336C838.846 147.071 843.323 146.238 847.508 144.556C851.692 142.875 855.501 140.378 858.713 137.211C861.924 134.045 864.474 130.272 866.215 126.111C867.956 121.95 868.852 117.485 868.852 112.975C868.852 108.465 867.956 104 866.215 99.8397C864.474 95.6791 861.924 91.9059 858.713 88.7394C855.501 85.5729 851.692 83.0761 847.508 81.3943C843.323 79.7125 838.846 78.8793 834.336 78.9428H740V50.9767H834.336C841.778 50.9651 849.162 52.2963 856.131 54.9063C860.347 39.8828 869.358 26.6489 881.79 17.2197C894.223 7.79045 909.396 2.68255 925 2.67407V30.6335C913.705 30.6485 902.857 35.0505 894.746 42.9111C886.635 50.7716 881.895 61.4757 881.525 72.7648Z" fill="#2529E8"/>
</g>
<defs>
<clipPath id="clip0_146_22">
<rect width="1480" height="387.656" fill="white"/>
</clipPath>
</defs>
</svg>
