<svg width="741" height="194" viewBox="0 0 741 194" fill="none" xmlns="http://www.w3.org/2000/svg">
<g opacity="0.1" clip-path="url(#clip0_652_214)">
<path d="M55.4781 180.008H0.0708008V194H55.4781V180.008Z" fill="white"/>
<path d="M70.8254 157.582C74.6685 153.071 77.1395 147.554 77.9462 141.684C78.7529 135.813 77.8614 129.835 75.3774 124.455C72.8934 119.075 68.9206 114.519 63.929 111.325C58.9374 108.132 53.1357 106.435 47.21 106.435H0V120.427H47.21C49.4668 120.395 51.7073 120.812 53.8015 121.654C55.8957 122.496 57.8019 123.745 59.4091 125.33C61.0162 126.914 62.2924 128.803 63.1635 130.885C64.0345 132.967 64.483 135.202 64.483 137.459C64.483 139.716 64.0345 141.95 63.1635 144.032C62.2924 146.114 61.0162 148.003 59.4091 149.587C57.8019 151.172 55.8957 152.421 53.8015 153.263C51.7073 154.105 49.4668 154.522 47.21 154.49H0V168.485H47.21C50.9369 168.491 54.6341 167.824 58.1238 166.515C60.2337 174.034 64.7429 180.657 70.9647 185.375C77.1864 190.094 84.7799 192.65 92.5887 192.655V178.663C86.9355 178.657 81.5059 176.455 77.4453 172.522C73.3847 168.589 71.0112 163.232 70.8254 157.582Z" fill="white"/>
<path d="M185.093 180.008H129.686V194H185.093V180.008Z" fill="white"/>
<path d="M114.339 157.582C110.496 153.071 108.025 147.554 107.218 141.684C106.411 135.813 107.303 129.835 109.787 124.455C112.271 119.075 116.244 114.519 121.235 111.325C126.227 108.132 132.029 106.435 137.954 106.435H185.164V120.427H137.954C135.698 120.395 133.457 120.812 131.363 121.654C129.269 122.496 127.362 123.745 125.755 125.33C124.148 126.914 122.872 128.803 122.001 130.885C121.13 132.967 120.681 135.202 120.681 137.459C120.681 139.716 121.13 141.95 122.001 144.032C122.872 146.114 124.148 148.003 125.755 149.587C127.362 151.172 129.269 152.421 131.363 153.263C133.457 154.105 135.698 154.522 137.954 154.49H185.164V168.485H137.954C134.227 168.491 130.53 167.824 127.041 166.515C124.931 174.034 120.421 180.657 114.2 185.375C107.978 190.094 100.384 192.65 92.5757 192.655V178.663C98.2289 178.657 103.659 176.455 107.719 172.522C111.78 168.589 114.153 163.232 114.339 157.582Z" fill="white"/>
<path d="M240.642 180.008H185.235V194H240.642V180.008Z" fill="white"/>
<path d="M255.989 157.582C259.833 153.071 262.304 147.554 263.11 141.684C263.917 135.813 263.025 129.835 260.541 124.455C258.057 119.075 254.085 114.519 249.093 111.325C244.101 108.132 238.3 106.435 232.374 106.435H185.164V120.427H232.374C234.631 120.395 236.871 120.812 238.966 121.654C241.06 122.496 242.966 123.745 244.573 125.33C246.18 126.914 247.456 128.803 248.328 130.885C249.199 132.967 249.647 135.202 249.647 137.459C249.647 139.716 249.199 141.95 248.328 144.032C247.456 146.114 246.18 148.003 244.573 149.587C242.966 151.172 241.06 152.421 238.966 153.263C236.871 154.105 234.631 154.522 232.374 154.49H185.164V168.485H232.374C236.101 168.491 239.798 167.824 243.288 166.515C245.398 174.034 249.907 180.657 256.129 185.375C262.351 190.094 269.944 192.65 277.753 192.655V178.663C272.1 178.657 266.67 176.455 262.609 172.522C258.549 168.589 256.175 163.232 255.989 157.582Z" fill="white"/>
<path d="M370.257 180.008H314.85V194H370.257V180.008Z" fill="white"/>
<path d="M299.503 157.582C295.66 153.071 293.189 147.554 292.382 141.684C291.576 135.813 292.467 129.835 294.951 124.455C297.435 119.075 301.408 114.519 306.399 111.325C311.391 108.132 317.193 106.435 323.118 106.435H370.328V120.427H323.118C320.862 120.395 318.621 120.812 316.527 121.654C314.433 122.496 312.527 123.745 310.919 125.33C309.312 126.914 308.036 128.803 307.165 130.885C306.294 132.967 305.845 135.202 305.845 137.459C305.845 139.716 306.294 141.95 307.165 144.032C308.036 146.114 309.312 148.003 310.919 149.587C312.527 151.172 314.433 152.421 316.527 153.263C318.621 154.105 320.862 154.522 323.118 154.49H370.328V168.485H323.118C319.392 168.491 315.694 167.824 312.205 166.515C310.095 174.034 305.586 180.657 299.364 185.375C293.142 190.094 285.549 192.65 277.74 192.655V178.663C283.393 178.657 288.823 176.455 292.883 172.522C296.944 168.589 299.317 163.232 299.503 157.582Z" fill="white"/>
<path d="M370.257 0H314.85V13.9921H370.257V0Z" fill="white"/>
<path d="M299.503 36.4156C295.66 40.926 293.189 46.4428 292.382 52.3133C291.575 58.1838 292.467 64.1626 294.951 69.5425C297.435 74.9224 301.408 79.4784 306.399 82.6717C311.391 85.8651 317.192 87.5621 323.118 87.5622H370.328V73.57H323.118C320.861 73.6018 318.621 73.1849 316.527 72.3432C314.432 71.5016 312.526 70.2521 310.919 68.6674C309.312 67.0827 308.036 65.1945 307.165 63.1123C306.294 61.0302 305.845 58.7956 305.845 56.5386C305.845 54.2816 306.294 52.0472 307.165 49.965C308.036 47.8829 309.312 45.9946 310.919 44.41C312.526 42.8253 314.432 41.5758 316.527 40.7342C318.621 39.8925 320.861 39.4755 323.118 39.5073H370.328V25.5118H323.118C319.394 25.5061 315.699 26.1723 312.211 27.4784C310.101 19.96 305.592 13.3372 299.37 8.61837C293.148 3.89957 285.555 1.34335 277.746 1.33911V15.3312C283.399 15.3387 288.827 17.5417 292.887 21.4755C296.946 25.4092 299.318 30.766 299.503 36.4156Z" fill="white"/>
<path d="M240.642 0H185.235V13.9921H240.642V0Z" fill="white"/>
<path d="M255.989 36.4156C259.833 40.926 262.304 46.4428 263.11 52.3133C263.917 58.1838 263.025 64.1626 260.541 69.5425C258.057 74.9224 254.085 79.4784 249.093 82.6717C244.101 85.8651 238.3 87.5621 232.374 87.5622H185.164V73.57H232.374C234.631 73.6018 236.871 73.1849 238.966 72.3432C241.06 71.5016 242.966 70.2521 244.573 68.6674C246.18 67.0827 247.456 65.1945 248.328 63.1123C249.199 61.0302 249.647 58.7956 249.647 56.5386C249.647 54.2816 249.199 52.0472 248.328 49.965C247.456 47.8829 246.18 45.9946 244.573 44.41C242.966 42.8253 241.06 41.5758 238.966 40.7342C236.871 39.8925 234.631 39.4755 232.374 39.5073H185.164V25.5118H232.374C236.098 25.5061 239.793 26.1723 243.281 27.4784C245.391 19.96 249.9 13.3372 256.122 8.61837C262.344 3.89957 269.937 1.34335 277.746 1.33911V15.3312C272.094 15.3387 266.665 17.5417 262.606 21.4755C258.547 25.4092 256.174 30.766 255.989 36.4156Z" fill="white"/>
<path d="M185.093 0H129.686V13.9921H185.093V0Z" fill="white"/>
<path d="M114.339 36.4156C110.496 40.926 108.025 46.4428 107.218 52.3133C106.411 58.1838 107.303 64.1626 109.787 69.5425C112.271 74.9224 116.243 79.4784 121.235 82.6717C126.227 85.8651 132.028 87.5621 137.954 87.5622H185.164V73.57H137.954C135.697 73.6018 133.457 73.1849 131.363 72.3432C129.268 71.5016 127.362 70.2521 125.755 68.6674C124.148 67.0827 122.872 65.1945 122.001 63.1123C121.13 61.0302 120.681 58.7956 120.681 56.5386C120.681 54.2816 121.13 52.0472 122.001 49.965C122.872 47.8829 124.148 45.9946 125.755 44.41C127.362 42.8253 129.268 41.5758 131.363 40.7342C133.457 39.8925 135.697 39.4755 137.954 39.5073H185.164V25.5118H137.954C134.23 25.5061 130.535 26.1723 127.047 27.4784C124.937 19.96 120.428 13.3372 114.206 8.61837C107.984 3.89957 100.391 1.34335 92.582 1.33911V15.3312C98.2346 15.3387 103.663 17.5417 107.722 21.4755C111.782 25.4092 114.154 30.766 114.339 36.4156Z" fill="white"/>
<path d="M55.4781 0H0.0708008V13.9921H55.4781V0Z" fill="white"/>
<path d="M70.8254 36.4156C74.6685 40.926 77.1395 46.4428 77.9462 52.3133C78.7529 58.1838 77.8614 64.1626 75.3774 69.5425C72.8934 74.9224 68.9206 79.4784 63.929 82.6717C58.9374 85.8651 53.1357 87.5621 47.21 87.5622H0V73.57H47.21C49.4668 73.6018 51.7073 73.1849 53.8015 72.3432C55.8957 71.5016 57.8019 70.2521 59.4091 68.6674C61.0162 67.0827 62.2924 65.1945 63.1635 63.1123C64.0345 61.0302 64.483 58.7956 64.483 56.5386C64.483 54.2816 64.0345 52.0472 63.1635 49.965C62.2924 47.8829 61.0162 45.9946 59.4091 44.41C57.8019 42.8253 55.8957 41.5758 53.8015 40.7342C51.7073 39.8925 49.4668 39.4755 47.21 39.5073H0V25.5118H47.21C50.9344 25.5061 54.6294 26.1723 58.1172 27.4784C60.2271 19.96 64.7363 13.3372 70.9581 8.61837C77.1798 3.89957 84.7733 1.34335 92.5821 1.33911V15.3312C86.9295 15.3387 81.5009 17.5417 77.4417 21.4755C73.3825 25.4092 71.0103 30.766 70.8254 36.4156Z" fill="white"/>
<path d="M425.807 180.008H370.399V194H425.807V180.008Z" fill="white"/>
<path d="M441.154 157.582C444.997 153.071 447.468 147.554 448.274 141.684C449.081 135.813 448.189 129.835 445.705 124.455C443.222 119.075 439.249 114.519 434.257 111.325C429.265 108.132 423.464 106.435 417.538 106.435H370.328V120.427H417.538C419.795 120.395 422.035 120.812 424.13 121.654C426.224 122.496 428.13 123.745 429.737 125.33C431.344 126.914 432.621 128.803 433.492 130.885C434.363 132.967 434.811 135.202 434.811 137.459C434.811 139.716 434.363 141.95 433.492 144.032C432.621 146.114 431.344 148.003 429.737 149.587C428.13 151.172 426.224 152.421 424.13 153.263C422.035 154.105 419.795 154.522 417.538 154.49H370.328V168.485H417.538C421.265 168.491 424.962 167.824 428.452 166.515C430.562 174.034 435.071 180.657 441.293 185.375C447.515 190.094 455.108 192.65 462.917 192.655V178.663C457.264 178.657 451.834 176.455 447.773 172.522C443.713 168.589 441.339 163.232 441.154 157.582Z" fill="white"/>
<path d="M555.421 180.008H500.014V194H555.421V180.008Z" fill="white"/>
<path d="M484.667 157.582C480.824 153.071 478.353 147.554 477.546 141.684C476.74 135.813 477.631 129.835 480.115 124.455C482.599 119.075 486.572 114.519 491.563 111.325C496.555 108.132 502.357 106.435 508.282 106.435H555.492V120.427H508.282C506.026 120.395 503.785 120.812 501.691 121.654C499.597 122.496 497.691 123.745 496.083 125.33C494.476 126.914 493.2 128.803 492.329 130.885C491.458 132.967 491.009 135.202 491.009 137.459C491.009 139.716 491.458 141.95 492.329 144.032C493.2 146.114 494.476 148.003 496.083 149.587C497.691 151.172 499.597 152.421 501.691 153.263C503.785 154.105 506.026 154.522 508.282 154.49H555.492V168.485H508.282C504.556 168.491 500.858 167.824 497.369 166.515C495.259 174.034 490.75 180.657 484.528 185.375C478.306 190.094 470.713 192.65 462.904 192.655V178.663C468.557 178.657 473.987 176.455 478.047 172.522C482.108 168.589 484.481 163.232 484.667 157.582Z" fill="white"/>
<path d="M610.971 180.008H555.563V194H610.971V180.008Z" fill="white"/>
<path d="M626.318 157.582C630.161 153.071 632.632 147.554 633.439 141.684C634.246 135.813 633.354 129.835 630.87 124.455C628.386 119.075 624.413 114.519 619.422 111.325C614.43 108.132 608.628 106.435 602.703 106.435H555.493V120.427H602.703C604.959 120.395 607.2 120.812 609.294 121.654C611.388 122.496 613.295 123.745 614.902 125.33C616.509 126.914 617.785 128.803 618.656 130.885C619.527 132.967 619.976 135.202 619.976 137.459C619.976 139.716 619.527 141.95 618.656 144.032C617.785 146.114 616.509 148.003 614.902 149.587C613.295 151.172 611.388 152.421 609.294 153.263C607.2 154.105 604.959 154.522 602.703 154.49H555.493V168.485H602.703C606.43 168.491 610.127 167.824 613.616 166.515C615.726 174.034 620.236 180.657 626.457 185.375C632.679 190.094 640.273 192.65 648.081 192.655V178.663C642.428 178.657 636.999 176.455 632.938 172.522C628.877 168.589 626.504 163.232 626.318 157.582Z" fill="white"/>
<path d="M740.586 180.008H685.178V194H740.586V180.008Z" fill="white"/>
<path d="M669.832 157.582C665.989 153.071 663.518 147.554 662.711 141.684C661.904 135.813 662.796 129.835 665.28 124.455C667.764 119.075 671.736 114.519 676.728 111.325C681.72 108.132 687.521 106.435 693.447 106.435H740.657V120.427H693.447C691.19 120.395 688.95 120.812 686.856 121.654C684.761 122.496 682.855 123.745 681.248 125.33C679.641 126.914 678.365 128.803 677.494 130.885C676.623 132.967 676.174 135.202 676.174 137.459C676.174 139.716 676.623 141.95 677.494 144.032C678.365 146.114 679.641 148.003 681.248 149.587C682.855 151.172 684.761 152.421 686.856 153.263C688.95 154.105 691.19 154.522 693.447 154.49H740.657V168.485H693.447C689.72 168.491 686.023 167.824 682.533 166.515C680.423 174.034 675.914 180.657 669.692 185.375C663.471 190.094 655.877 192.65 648.068 192.655V178.663C653.722 178.657 659.151 176.455 663.212 172.522C667.272 168.589 669.646 163.232 669.832 157.582Z" fill="white"/>
<path d="M740.586 0H685.178V13.9921H740.586V0Z" fill="white"/>
<path d="M669.832 36.4144C665.989 40.9248 663.518 46.4416 662.711 52.3121C661.904 58.1826 662.796 64.1614 665.28 69.5413C667.764 74.9212 671.736 79.4772 676.728 82.6705C681.72 85.8639 687.521 87.5609 693.447 87.561H740.657V73.5689H693.447C691.19 73.6006 688.95 73.1837 686.856 72.342C684.761 71.5004 682.855 70.2509 681.248 68.6662C679.641 67.0816 678.365 65.1933 677.494 63.1111C676.623 61.029 676.174 58.7945 676.174 56.5375C676.174 54.2805 676.623 52.046 677.494 49.9638C678.365 47.8817 679.641 45.9934 681.248 44.4088C682.855 42.8241 684.761 41.5746 686.856 40.733C688.95 39.8913 691.19 39.4744 693.447 39.5061H740.657V25.5106H693.447C689.72 25.5051 686.023 26.1725 682.533 27.4806C680.423 19.9622 675.914 13.3394 669.692 8.62056C663.471 3.90177 655.877 1.34555 648.068 1.34131V15.3334C653.722 15.3391 659.151 17.5409 663.212 21.4741C667.272 25.4073 669.646 30.7643 669.832 36.4144Z" fill="white"/>
<path d="M610.971 0H555.563V13.9921H610.971V0Z" fill="white"/>
<path d="M626.318 36.4144C630.161 40.9248 632.632 46.4416 633.439 52.3121C634.246 58.1826 633.354 64.1614 630.87 69.5413C628.386 74.9212 624.413 79.4772 619.422 82.6705C614.43 85.8639 608.628 87.5609 602.703 87.561H555.493V73.5689H602.703C604.959 73.6006 607.2 73.1837 609.294 72.342C611.388 71.5004 613.295 70.2509 614.902 68.6662C616.509 67.0816 617.785 65.1933 618.656 63.1111C619.527 61.029 619.976 58.7945 619.976 56.5375C619.976 54.2805 619.527 52.046 618.656 49.9638C617.785 47.8817 616.509 45.9934 614.902 44.4088C613.295 42.8241 611.388 41.5746 609.294 40.733C607.2 39.8913 604.959 39.4744 602.703 39.5061H555.493V25.5106H602.703C606.43 25.5051 610.127 26.1725 613.616 27.4806C615.726 19.9622 620.236 13.3394 626.457 8.62056C632.679 3.90177 640.273 1.34555 648.081 1.34131V15.3334C642.428 15.3391 636.999 17.5409 632.938 21.4741C628.877 25.4073 626.504 30.7643 626.318 36.4144Z" fill="white"/>
<path d="M555.421 0H500.014V13.9921H555.421V0Z" fill="white"/>
<path d="M484.667 36.4156C480.824 40.926 478.353 46.4428 477.547 52.3133C476.74 58.1838 477.631 64.1626 480.115 69.5425C482.599 74.9224 486.572 79.4784 491.564 82.6717C496.555 85.8651 502.357 87.5621 508.283 87.5622H555.493V73.57H508.283C506.026 73.6018 503.785 73.1849 501.691 72.3432C499.597 71.5016 497.691 70.2521 496.084 68.6674C494.477 67.0827 493.2 65.1945 492.329 63.1123C491.458 61.0302 491.01 58.7956 491.01 56.5386C491.01 54.2816 491.458 52.0472 492.329 49.965C493.2 47.8829 494.477 45.9946 496.084 44.41C497.691 42.8253 499.597 41.5758 501.691 40.7342C503.785 39.8925 506.026 39.4755 508.283 39.5073H555.493V25.5118H508.283C504.558 25.5061 500.863 26.1723 497.376 27.4784C495.266 19.96 490.756 13.3372 484.535 8.61837C478.313 3.89957 470.719 1.34335 462.911 1.33911V15.3312C468.563 15.3387 473.992 17.5417 478.051 21.4755C482.11 25.4092 484.482 30.766 484.667 36.4156Z" fill="white"/>
<path d="M425.807 0H370.399V13.9921H425.807V0Z" fill="white"/>
<path d="M441.154 36.4156C444.997 40.926 447.468 46.4428 448.274 52.3133C449.081 58.1838 448.189 64.1626 445.705 69.5425C443.221 74.9224 439.249 79.4784 434.257 82.6717C429.265 85.8651 423.464 87.5621 417.538 87.5622H370.328V73.57H417.538C419.795 73.6018 422.035 73.1849 424.13 72.3432C426.224 71.5016 428.13 70.2521 429.737 68.6674C431.344 67.0827 432.621 65.1945 433.492 63.1123C434.363 61.0302 434.811 58.7956 434.811 56.5386C434.811 54.2816 434.363 52.0472 433.492 49.965C432.621 47.8829 431.344 45.9946 429.737 44.41C428.13 42.8253 426.224 41.5758 424.13 40.7342C422.035 39.8925 419.795 39.4755 417.538 39.5073H370.328V25.5118H417.538C421.263 25.5061 424.957 26.1723 428.445 27.4784C430.555 19.96 435.064 13.3372 441.286 8.61837C447.508 3.89957 455.101 1.34335 462.91 1.33911V15.3312C457.258 15.3387 451.829 17.5417 447.77 21.4755C443.711 25.4092 441.338 30.766 441.154 36.4156Z" fill="white"/>
</g>
<defs>
<clipPath id="clip0_652_214">
<rect width="740.657" height="194" fill="white"/>
</clipPath>
</defs>
</svg>
