<svg width="768" height="203" viewBox="0 0 768 203" fill="none" xmlns="http://www.w3.org/2000/svg">
<g opacity="0.1" clip-path="url(#clip0_208_261)">
<path d="M57.5266 187.524H0.0737305V202.032H57.5266V187.524Z" fill="#2529E8" fill-opacity="0.5"/>
<path d="M73.4401 164.27C77.4251 159.593 79.9873 153.873 80.8238 147.786C81.6603 141.698 80.7358 135.499 78.1601 129.92C75.5844 124.342 71.465 119.618 66.2891 116.306C61.1132 112.995 55.0973 111.235 48.9529 111.235H0V125.744H48.9529C51.293 125.711 53.6162 126.143 55.7878 127.016C57.9593 127.889 59.9358 129.185 61.6023 130.828C63.2688 132.471 64.5921 134.429 65.4953 136.588C66.3985 138.747 66.8636 141.064 66.8636 143.404C66.8636 145.745 66.3985 148.062 65.4953 150.221C64.5921 152.38 63.2688 154.338 61.6023 155.981C59.9358 157.624 57.9593 158.919 55.7878 159.792C53.6162 160.665 51.293 161.097 48.9529 161.064H0V175.576H48.9529C52.8173 175.582 56.651 174.89 60.2696 173.534C62.4574 181.33 67.133 188.197 73.5845 193.09C80.036 197.983 87.9098 200.634 96.0069 200.638V186.129C90.145 186.124 84.5149 183.84 80.3044 179.762C76.0939 175.684 73.6328 170.129 73.4401 164.27Z" fill="#2529E8" fill-opacity="0.5"/>
<path d="M191.926 187.524H134.474V202.032H191.926V187.524Z" fill="#2529E8" fill-opacity="0.5"/>
<path d="M118.56 164.27C114.575 159.593 112.013 153.873 111.176 147.786C110.34 141.698 111.264 135.499 113.84 129.92C116.416 124.342 120.535 119.618 125.711 116.306C130.887 112.995 136.903 111.235 143.047 111.235H192V125.744H143.047C140.707 125.711 138.384 126.143 136.212 127.016C134.041 127.889 132.064 129.185 130.398 130.828C128.731 132.471 127.408 134.429 126.505 136.588C125.601 138.747 125.136 141.064 125.136 143.404C125.136 145.745 125.601 148.062 126.505 150.221C127.408 152.38 128.731 154.338 130.398 155.981C132.064 157.624 134.041 158.919 136.212 159.792C138.384 160.665 140.707 161.097 143.047 161.064H192V175.576H143.047C139.183 175.582 135.349 174.89 131.73 173.534C129.543 181.33 124.867 188.197 118.415 193.09C111.964 197.983 104.09 200.634 95.9932 200.638V186.129C101.855 186.124 107.485 183.84 111.696 179.762C115.906 175.684 118.367 170.129 118.56 164.27Z" fill="#2529E8" fill-opacity="0.5"/>
<path d="M249.527 187.524H192.074V202.032H249.527V187.524Z" fill="#2529E8" fill-opacity="0.5"/>
<path d="M265.44 164.27C269.425 159.593 271.987 153.873 272.824 147.786C273.66 141.698 272.736 135.499 270.16 129.92C267.584 124.342 263.465 119.618 258.289 116.306C253.113 112.995 247.097 111.235 240.953 111.235H192V125.744H240.953C243.293 125.711 245.616 126.143 247.788 127.016C249.959 127.889 251.936 129.185 253.602 130.828C255.269 132.471 256.592 134.429 257.495 136.588C258.399 138.747 258.864 141.064 258.864 143.404C258.864 145.745 258.399 148.062 257.495 150.221C256.592 152.38 255.269 154.338 253.602 155.981C251.936 157.624 249.959 158.919 247.788 159.792C245.616 160.665 243.293 161.097 240.953 161.064H192V175.576H240.953C244.817 175.582 248.651 174.89 252.27 173.534C254.457 181.33 259.133 188.197 265.585 193.09C272.036 197.983 279.91 200.634 288.007 200.638V186.129C282.145 186.124 276.515 183.84 272.304 179.762C268.094 175.684 265.633 170.129 265.44 164.27Z" fill="#2529E8" fill-opacity="0.5"/>
<path d="M383.926 187.524H326.474V202.032H383.926V187.524Z" fill="#2529E8" fill-opacity="0.5"/>
<path d="M310.56 164.27C306.575 159.593 304.013 153.873 303.176 147.786C302.34 141.698 303.264 135.499 305.84 129.92C308.416 124.342 312.535 119.618 317.711 116.306C322.887 112.995 328.903 111.235 335.047 111.235H384V125.744H335.047C332.707 125.711 330.384 126.143 328.212 127.016C326.041 127.889 324.064 129.185 322.398 130.828C320.731 132.471 319.408 134.429 318.505 136.588C317.601 138.747 317.136 141.064 317.136 143.404C317.136 145.745 317.601 148.062 318.505 150.221C319.408 152.38 320.731 154.338 322.398 155.981C324.064 157.624 326.041 158.919 328.212 159.792C330.384 160.665 332.707 161.097 335.047 161.064H384V175.576H335.047C331.183 175.582 327.349 174.89 323.73 173.534C321.543 181.33 316.867 188.197 310.415 193.09C303.964 197.983 296.09 200.634 287.993 200.638V186.129C293.855 186.124 299.485 183.84 303.696 179.762C307.906 175.684 310.367 170.129 310.56 164.27Z" fill="#2529E8" fill-opacity="0.5"/>
<path d="M383.926 0.870361H326.474V15.379H383.926V0.870361Z" fill="#2529E8" fill-opacity="0.5"/>
<path d="M310.56 38.6293C306.575 43.3063 304.013 49.0267 303.176 55.1139C302.34 61.2012 303.264 67.4007 305.84 72.9792C308.416 78.5577 312.535 83.2819 317.711 86.5931C322.887 89.9044 328.903 91.6641 335.047 91.6641H384V77.1554H335.047C332.707 77.1884 330.384 76.756 328.212 75.8833C326.041 75.0106 324.064 73.715 322.398 72.0718C320.731 70.4286 319.408 68.4707 318.505 66.3117C317.601 64.1526 317.136 61.8356 317.136 59.4953C317.136 57.155 317.601 54.838 318.505 52.679C319.408 50.52 320.731 48.562 322.398 46.9188C324.064 45.2757 326.041 43.98 328.212 43.1073C330.384 42.2346 332.707 41.8022 335.047 41.8352H384V27.323H335.047C331.185 27.317 327.354 28.0078 323.737 29.3622C321.549 21.5662 316.874 14.6989 310.422 9.80589C303.971 4.91289 296.097 2.2623 288 2.2579V16.7666C293.861 16.7743 299.49 19.0587 303.699 23.1376C307.908 27.2166 310.368 32.7712 310.56 38.6293Z" fill="#2529E8" fill-opacity="0.5"/>
<path d="M249.527 0.870361H192.074V15.379H249.527V0.870361Z" fill="#2529E8" fill-opacity="0.5"/>
<path d="M265.44 38.6293C269.425 43.3063 271.987 49.0267 272.824 55.1139C273.66 61.2012 272.736 67.4007 270.16 72.9792C267.584 78.5577 263.465 83.2819 258.289 86.5931C253.113 89.9044 247.097 91.6641 240.953 91.6641H192V77.1554H240.953C243.293 77.1884 245.616 76.756 247.788 75.8833C249.959 75.0106 251.936 73.715 253.602 72.0718C255.269 70.4286 256.592 68.4707 257.495 66.3117C258.399 64.1526 258.864 61.8356 258.864 59.4953C258.864 57.155 258.399 54.838 257.495 52.679C256.592 50.52 255.269 48.562 253.602 46.9188C251.936 45.2757 249.959 43.98 247.788 43.1073C245.616 42.2346 243.293 41.8022 240.953 41.8352H192V27.323H240.953C244.815 27.317 248.646 28.0078 252.263 29.3622C254.451 21.5662 259.126 14.6989 265.578 9.80589C272.029 4.91289 279.903 2.2623 288 2.2579V16.7666C282.139 16.7743 276.51 19.0587 272.301 23.1376C268.092 27.2166 265.632 32.7712 265.44 38.6293Z" fill="#2529E8" fill-opacity="0.5"/>
<path d="M191.926 0.870361H134.474V15.379H191.926V0.870361Z" fill="#2529E8" fill-opacity="0.5"/>
<path d="M118.56 38.6293C114.575 43.3063 112.013 49.0267 111.176 55.1139C110.34 61.2012 111.264 67.4007 113.84 72.9792C116.416 78.5577 120.535 83.2819 125.711 86.5931C130.887 89.9044 136.903 91.6641 143.047 91.6641H192V77.1554H143.047C140.707 77.1884 138.384 76.756 136.212 75.8833C134.041 75.0106 132.064 73.715 130.398 72.0718C128.731 70.4286 127.408 68.4707 126.505 66.3117C125.601 64.1526 125.136 61.8356 125.136 59.4953C125.136 57.155 125.601 54.838 126.505 52.679C127.408 50.52 128.731 48.562 130.398 46.9188C132.064 45.2757 134.041 43.98 136.212 43.1073C138.384 42.2346 140.707 41.8022 143.047 41.8352H192V27.323H143.047C139.185 27.317 135.354 28.0078 131.737 29.3622C129.549 21.5662 124.874 14.6989 118.422 9.80589C111.971 4.91289 104.097 2.2623 96 2.2579V16.7666C101.861 16.7743 107.49 19.0587 111.699 23.1376C115.908 27.2166 118.368 32.7712 118.56 38.6293Z" fill="#2529E8" fill-opacity="0.5"/>
<path d="M57.5261 0.870361H0.0732422V15.379H57.5261V0.870361Z" fill="#2529E8" fill-opacity="0.5"/>
<path d="M73.4401 38.6293C77.4251 43.3063 79.9873 49.0267 80.8238 55.1139C81.6603 61.2012 80.7358 67.4007 78.1601 72.9792C75.5844 78.5577 71.465 83.2819 66.2891 86.5931C61.1132 89.9044 55.0973 91.6641 48.9529 91.6641H0V77.1554H48.9529C51.293 77.1884 53.6162 76.756 55.7878 75.8833C57.9593 75.0106 59.9358 73.715 61.6023 72.0718C63.2688 70.4286 64.5921 68.4707 65.4953 66.3117C66.3985 64.1526 66.8636 61.8356 66.8636 59.4953C66.8636 57.155 66.3985 54.838 65.4953 52.679C64.5921 50.52 63.2688 48.562 61.6023 46.9188C59.9358 45.2757 57.9593 43.98 55.7878 43.1073C53.6162 42.2346 51.293 41.8022 48.9529 41.8352H0V27.323H48.9529C52.8148 27.317 56.6462 28.0078 60.2628 29.3622C62.4505 21.5662 67.1262 14.6989 73.5777 9.80589C80.0291 4.91289 87.9029 2.2623 96 2.2579V16.7666C90.1387 16.7743 84.5097 19.0587 80.3006 23.1376C76.0916 27.2166 73.6318 32.7712 73.4401 38.6293Z" fill="#2529E8" fill-opacity="0.5"/>
<path d="M441.527 187.524H384.074V202.032H441.527V187.524Z" fill="#2529E8" fill-opacity="0.5"/>
<path d="M457.44 164.27C461.425 159.593 463.987 153.873 464.824 147.786C465.66 141.698 464.736 135.499 462.16 129.92C459.584 124.342 455.465 119.618 450.289 116.306C445.113 112.995 439.097 111.235 432.953 111.235H384V125.744H432.953C435.293 125.711 437.616 126.143 439.788 127.016C441.959 127.889 443.936 129.185 445.602 130.828C447.269 132.471 448.592 134.429 449.495 136.588C450.399 138.747 450.864 141.064 450.864 143.404C450.864 145.745 450.399 148.062 449.495 150.221C448.592 152.38 447.269 154.338 445.602 155.981C443.936 157.624 441.959 158.919 439.788 159.792C437.616 160.665 435.293 161.097 432.953 161.064H384V175.576H432.953C436.817 175.582 440.651 174.89 444.27 173.534C446.457 181.33 451.133 188.197 457.585 193.09C464.036 197.983 471.91 200.634 480.007 200.638V186.129C474.145 186.124 468.515 183.84 464.304 179.762C460.094 175.684 457.633 170.129 457.44 164.27Z" fill="#2529E8" fill-opacity="0.5"/>
<path d="M575.926 187.524H518.474V202.032H575.926V187.524Z" fill="#2529E8" fill-opacity="0.5"/>
<path d="M502.56 164.27C498.575 159.593 496.013 153.873 495.176 147.786C494.34 141.698 495.264 135.499 497.84 129.92C500.416 124.342 504.535 119.618 509.711 116.306C514.887 112.995 520.903 111.235 527.047 111.235H576V125.744H527.047C524.707 125.711 522.384 126.143 520.212 127.016C518.041 127.889 516.064 129.185 514.398 130.828C512.731 132.471 511.408 134.429 510.505 136.588C509.601 138.747 509.136 141.064 509.136 143.404C509.136 145.745 509.601 148.062 510.505 150.221C511.408 152.38 512.731 154.338 514.398 155.981C516.064 157.624 518.041 158.919 520.212 159.792C522.384 160.665 524.707 161.097 527.047 161.064H576V175.576H527.047C523.183 175.582 519.349 174.89 515.73 173.534C513.543 181.33 508.867 188.197 502.415 193.09C495.964 197.983 488.09 200.634 479.993 200.638V186.129C485.855 186.124 491.485 183.84 495.696 179.762C499.906 175.684 502.367 170.129 502.56 164.27Z" fill="#2529E8" fill-opacity="0.5"/>
<path d="M633.527 187.524H576.074V202.032H633.527V187.524Z" fill="#2529E8" fill-opacity="0.5"/>
<path d="M649.44 164.27C653.425 159.593 655.987 153.873 656.824 147.786C657.66 141.698 656.736 135.499 654.16 129.92C651.584 124.342 647.465 119.618 642.289 116.306C637.113 112.995 631.097 111.235 624.953 111.235H576V125.744H624.953C627.293 125.711 629.616 126.143 631.788 127.016C633.959 127.889 635.936 129.185 637.602 130.828C639.269 132.471 640.592 134.429 641.495 136.588C642.399 138.747 642.864 141.064 642.864 143.404C642.864 145.745 642.399 148.062 641.495 150.221C640.592 152.38 639.269 154.338 637.602 155.981C635.936 157.624 633.959 158.919 631.788 159.792C629.616 160.665 627.293 161.097 624.953 161.064H576V175.576H624.953C628.817 175.582 632.651 174.89 636.27 173.534C638.457 181.33 643.133 188.197 649.585 193.09C656.036 197.983 663.91 200.634 672.007 200.638V186.129C666.145 186.124 660.515 183.84 656.304 179.762C652.094 175.684 649.633 170.129 649.44 164.27Z" fill="#2529E8" fill-opacity="0.5"/>
<path d="M767.926 187.524H710.474V202.032H767.926V187.524Z" fill="#2529E8" fill-opacity="0.5"/>
<path d="M694.56 164.27C690.575 159.593 688.013 153.873 687.176 147.786C686.34 141.698 687.264 135.499 689.84 129.92C692.416 124.342 696.535 119.618 701.711 116.306C706.887 112.995 712.903 111.235 719.047 111.235H768V125.744H719.047C716.707 125.711 714.384 126.143 712.212 127.016C710.041 127.889 708.064 129.185 706.398 130.828C704.731 132.471 703.408 134.429 702.505 136.588C701.601 138.747 701.136 141.064 701.136 143.404C701.136 145.745 701.601 148.062 702.505 150.221C703.408 152.38 704.731 154.338 706.398 155.981C708.064 157.624 710.041 158.919 712.212 159.792C714.384 160.665 716.707 161.097 719.047 161.064H768V175.576H719.047C715.183 175.582 711.349 174.89 707.73 173.534C705.543 181.33 700.867 188.197 694.415 193.09C687.964 197.983 680.09 200.634 671.993 200.638V186.129C677.855 186.124 683.485 183.84 687.696 179.762C691.906 175.684 694.367 170.129 694.56 164.27Z" fill="#2529E8" fill-opacity="0.5"/>
<path d="M767.926 0.870361H710.474V15.379H767.926V0.870361Z" fill="#2529E8" fill-opacity="0.5"/>
<path d="M694.56 38.6293C690.575 43.3063 688.013 49.0267 687.176 55.1139C686.34 61.2012 687.264 67.4007 689.84 72.9792C692.416 78.5577 696.535 83.2819 701.711 86.5931C706.887 89.9044 712.903 91.6641 719.047 91.6641H768V77.1554H719.047C716.707 77.1884 714.384 76.756 712.212 75.8833C710.041 75.0106 708.064 73.715 706.398 72.0718C704.731 70.4286 703.408 68.4707 702.505 66.3117C701.601 64.1526 701.136 61.8356 701.136 59.4953C701.136 57.155 701.601 54.838 702.505 52.679C703.408 50.52 704.731 48.562 706.398 46.9188C708.064 45.2757 710.041 43.98 712.212 43.1073C714.384 42.2346 716.707 41.8022 719.047 41.8352H768V27.323H719.047C715.183 27.3173 711.349 28.0093 707.73 29.3657C705.543 21.5697 700.867 14.7024 694.415 9.8094C687.964 4.9164 680.09 2.26581 671.993 2.26141V16.7701C677.855 16.776 683.485 19.059 687.696 23.1375C691.906 27.2159 694.367 32.7706 694.56 38.6293Z" fill="#2529E8" fill-opacity="0.5"/>
<path d="M633.527 0.870361H576.074V15.379H633.527V0.870361Z" fill="#2529E8" fill-opacity="0.5"/>
<path d="M649.44 38.6293C653.425 43.3063 655.987 49.0267 656.824 55.1139C657.66 61.2012 656.736 67.4007 654.16 72.9792C651.584 78.5577 647.465 83.2819 642.289 86.5931C637.113 89.9044 631.097 91.6641 624.953 91.6641H576V77.1554H624.953C627.293 77.1884 629.616 76.756 631.788 75.8833C633.959 75.0106 635.936 73.715 637.602 72.0718C639.269 70.4286 640.592 68.4707 641.495 66.3117C642.399 64.1526 642.864 61.8356 642.864 59.4953C642.864 57.155 642.399 54.838 641.495 52.679C640.592 50.52 639.269 48.562 637.602 46.9188C635.936 45.2757 633.959 43.98 631.788 43.1073C629.616 42.2346 627.293 41.8022 624.953 41.8352H576V27.323H624.953C628.817 27.3173 632.651 28.0093 636.27 29.3657C638.457 21.5697 643.133 14.7024 649.585 9.8094C656.036 4.9164 663.91 2.26581 672.007 2.26141V16.7701C666.145 16.776 660.515 19.059 656.304 23.1375C652.094 27.2159 649.633 32.7706 649.44 38.6293Z" fill="#2529E8" fill-opacity="0.5"/>
<path d="M575.926 0.870361H518.474V15.379H575.926V0.870361Z" fill="#2529E8" fill-opacity="0.5"/>
<path d="M502.56 38.6293C498.575 43.3063 496.013 49.0267 495.176 55.1139C494.34 61.2012 495.264 67.4007 497.84 72.9792C500.416 78.5577 504.535 83.2819 509.711 86.5931C514.887 89.9044 520.903 91.6641 527.047 91.6641H576V77.1554H527.047C524.707 77.1884 522.384 76.756 520.212 75.8833C518.041 75.0106 516.064 73.715 514.398 72.0718C512.731 70.4286 511.408 68.4707 510.505 66.3117C509.601 64.1526 509.136 61.8356 509.136 59.4953C509.136 57.155 509.601 54.838 510.505 52.679C511.408 50.52 512.731 48.562 514.398 46.9188C516.064 45.2757 518.041 43.98 520.212 43.1073C522.384 42.2346 524.707 41.8022 527.047 41.8352H576V27.323H527.047C523.185 27.317 519.354 28.0078 515.737 29.3622C513.549 21.5662 508.874 14.6989 502.422 9.80589C495.971 4.91289 488.097 2.2623 480 2.2579V16.7666C485.861 16.7743 491.49 19.0587 495.699 23.1376C499.908 27.2166 502.368 32.7712 502.56 38.6293Z" fill="#2529E8" fill-opacity="0.5"/>
<path d="M441.527 0.870361H384.074V15.379H441.527V0.870361Z" fill="#2529E8" fill-opacity="0.5"/>
<path d="M457.44 38.6293C461.425 43.3063 463.987 49.0267 464.824 55.1139C465.66 61.2012 464.736 67.4007 462.16 72.9792C459.584 78.5577 455.465 83.2819 450.289 86.5931C445.113 89.9044 439.097 91.6641 432.953 91.6641H384V77.1554H432.953C435.293 77.1884 437.616 76.756 439.788 75.8833C441.959 75.0106 443.936 73.715 445.602 72.0718C447.269 70.4286 448.592 68.4707 449.495 66.3117C450.399 64.1526 450.864 61.8356 450.864 59.4953C450.864 57.155 450.399 54.838 449.495 52.679C448.592 50.52 447.269 48.562 445.602 46.9188C443.936 45.2757 441.959 43.98 439.788 43.1073C437.616 42.2346 435.293 41.8022 432.953 41.8352H384V27.323H432.953C436.815 27.317 440.646 28.0078 444.263 29.3622C446.451 21.5662 451.126 14.6989 457.578 9.80589C464.029 4.91289 471.903 2.2623 480 2.2579V16.7666C474.139 16.7743 468.51 19.0587 464.301 23.1376C460.092 27.2166 457.632 32.7712 457.44 38.6293Z" fill="#2529E8" fill-opacity="0.5"/>
</g>
<defs>
<clipPath id="clip0_208_261">
<rect width="768" height="201.162" fill="white" transform="translate(0 0.870361)"/>
</clipPath>
</defs>
</svg>
