<svg width="253" height="272" viewBox="0 0 253 272" fill="none" xmlns="http://www.w3.org/2000/svg">
<path d="M137.039 228.343H-34.78V271.733H137.039V228.343Z" fill="#2529E8"/>
<path d="M184.631 158.8C196.549 144.813 204.211 127.705 206.713 109.501C209.214 91.2959 206.45 72.7557 198.747 56.0725C191.044 39.3892 178.725 25.2609 163.246 15.3583C147.767 5.45574 129.775 0.193255 111.4 0.193115H-35V43.5827H111.4C118.398 43.4841 125.346 44.7774 131.84 47.3874C138.334 49.9974 144.245 53.8719 149.229 58.786C154.213 63.7001 158.17 69.5556 160.871 76.0124C163.573 82.4692 164.964 89.3984 164.964 96.3974C164.964 103.396 163.573 110.326 160.871 116.782C158.17 123.239 154.213 129.095 149.229 134.009C144.245 138.923 138.334 142.798 131.84 145.407C125.346 148.017 118.398 149.311 111.4 149.212H-35V192.612H111.4C122.957 192.629 134.422 190.56 145.244 186.504C151.786 209.818 165.769 230.356 185.063 244.989C204.357 259.622 227.905 267.549 252.12 267.562V224.172C234.589 224.154 217.752 217.327 205.16 205.13C192.568 192.933 185.207 176.321 184.631 158.8Z" fill="#2529E8"/>
</svg>
