<svg width="207" height="273" viewBox="0 0 207 273" fill="none" xmlns="http://www.w3.org/2000/svg">
<path d="M91.5666 228.849H-80.7793V272.372H91.5666V228.849Z" fill="#2529E8"/>
<path d="M139.304 159.093C151.258 145.063 158.944 127.903 161.453 109.642C163.963 91.382 161.19 72.785 153.464 56.0506C145.737 39.3162 133.38 25.1446 117.853 15.2117C102.327 5.27876 84.2802 0.000140451 65.8482 0H-81V43.5226H65.8482C72.868 43.4237 79.8375 44.721 86.3515 47.3389C92.8656 49.9569 98.7944 53.8433 103.793 58.7725C108.792 63.7016 112.762 69.5751 115.472 76.0517C118.181 82.5282 119.576 89.4787 119.576 96.4992C119.576 103.52 118.181 110.47 115.472 116.947C112.762 123.423 108.792 129.297 103.793 134.226C98.7944 139.155 92.8656 143.041 86.3515 145.659C79.8375 148.277 72.868 149.575 65.8482 149.476H-81V193.009H65.8482C77.4407 193.026 88.9412 190.95 99.7962 186.881C106.359 210.268 120.385 230.868 139.738 245.546C159.091 260.224 182.71 268.175 207 268.188V224.666C189.416 224.648 172.526 217.799 159.896 205.565C147.265 193.33 139.882 176.667 139.304 159.093Z" fill="#2529E8"/>
</svg>
