<svg width="186" height="202" viewBox="0 0 186 202" fill="none" xmlns="http://www.w3.org/2000/svg">
<path d="M100.312 169.824H-26.8372V201.933H100.312V169.824Z" fill="#2529E8"/>
<path d="M135.531 118.36C144.35 108.01 150.02 95.3499 151.872 81.8782C153.723 68.4065 151.678 54.6864 145.977 42.3405C140.277 29.9946 131.16 19.5394 119.705 12.2113C108.251 4.88321 94.9366 0.988873 81.3383 0.98877H-27V33.0978H81.3383C86.5172 33.0249 91.6589 33.982 96.4647 35.9134C101.271 37.8448 105.645 40.7121 109.333 44.3486C113.021 47.9851 115.949 52.3183 117.948 57.0964C119.947 61.8745 120.977 67.0023 120.977 72.1817C120.977 77.3611 119.947 82.4888 117.948 87.267C115.949 92.0451 113.021 96.3783 109.333 100.015C105.645 103.651 101.271 106.519 96.4647 108.45C91.6589 110.381 86.5172 111.338 81.3383 111.266H-27V143.382H81.3383C89.8907 143.395 98.3753 141.864 106.384 138.862C111.225 156.115 121.573 171.313 135.851 182.142C150.129 192.971 167.554 198.837 185.474 198.846V166.737C172.501 166.724 160.041 161.671 150.722 152.645C141.404 143.619 135.957 131.326 135.531 118.36Z" fill="#2529E8"/>
</svg>
