<svg width="383" height="380" viewBox="0 0 383 380" fill="none" xmlns="http://www.w3.org/2000/svg">
<path d="M222.275 318.64H-17.6927V379.24H222.275V318.64Z" fill="#2529E8"/>
<path d="M288.743 221.514C305.387 201.98 316.089 178.087 319.583 152.662C323.077 127.237 319.216 101.343 308.458 78.0427C297.7 54.7424 280.494 35.0103 258.876 21.1801C237.257 7.34993 212.13 0.000195559 186.466 0H-18V60.5991H186.466C196.24 60.4615 205.944 62.2677 215.014 65.9129C224.084 69.558 232.339 74.9694 239.299 81.8325C246.26 88.6956 251.787 96.8736 255.559 105.891C259.332 114.909 261.275 124.587 261.275 134.362C261.275 144.137 259.332 153.814 255.559 162.832C251.787 171.85 246.26 180.028 239.299 186.891C232.339 193.754 224.084 199.165 215.014 202.81C205.944 206.456 196.24 208.262 186.466 208.124H-18V268.738H186.466C202.607 268.762 218.619 265.872 233.734 260.206C242.871 292.768 262.4 321.452 289.347 341.889C316.293 362.326 349.18 373.396 383 373.415V312.816C358.516 312.791 335 303.255 317.414 286.22C299.827 269.186 289.547 245.985 288.743 221.514Z" fill="#2529E8"/>
</svg>
